%TF.GenerationSoftware,KiCad,Pcbnew,7.0.7*%
%TF.CreationDate,2023-09-08T23:17:23+01:00*%
%TF.ProjectId,dumb-vga,64756d62-2d76-4676-912e-6b696361645f,v0.7*%
%TF.SameCoordinates,Original*%
%TF.FileFunction,Soldermask,Top*%
%TF.FilePolarity,Negative*%
%FSLAX46Y46*%
G04 Gerber Fmt 4.6, Leading zero omitted, Abs format (unit mm)*
G04 Created by KiCad (PCBNEW 7.0.7) date 2023-09-08 23:17:23*
%MOMM*%
%LPD*%
G01*
G04 APERTURE LIST*
G04 Aperture macros list*
%AMRoundRect*
0 Rectangle with rounded corners*
0 $1 Rounding radius*
0 $2 $3 $4 $5 $6 $7 $8 $9 X,Y pos of 4 corners*
0 Add a 4 corners polygon primitive as box body*
4,1,4,$2,$3,$4,$5,$6,$7,$8,$9,$2,$3,0*
0 Add four circle primitives for the rounded corners*
1,1,$1+$1,$2,$3*
1,1,$1+$1,$4,$5*
1,1,$1+$1,$6,$7*
1,1,$1+$1,$8,$9*
0 Add four rect primitives between the rounded corners*
20,1,$1+$1,$2,$3,$4,$5,0*
20,1,$1+$1,$4,$5,$6,$7,0*
20,1,$1+$1,$6,$7,$8,$9,0*
20,1,$1+$1,$8,$9,$2,$3,0*%
G04 Aperture macros list end*
%ADD10C,2.000000*%
%ADD11RoundRect,0.200000X-0.800000X0.800000X-0.800000X-0.800000X0.800000X-0.800000X0.800000X0.800000X0*%
%ADD12O,2.000000X2.000000*%
%ADD13RoundRect,0.200000X0.800000X-0.800000X0.800000X0.800000X-0.800000X0.800000X-0.800000X-0.800000X0*%
%ADD14C,2.076400*%
%ADD15C,5.480000*%
%ADD16RoundRect,0.200000X0.850000X-0.850000X0.850000X0.850000X-0.850000X0.850000X-0.850000X-0.850000X0*%
%ADD17O,2.100000X2.100000*%
%ADD18C,5.400000*%
G04 APERTURE END LIST*
D10*
%TO.C,C1*%
X113030000Y-46990000D03*
X108030000Y-46990000D03*
%TD*%
D11*
%TO.C,IC1*%
X133350000Y-106680000D03*
D12*
X130810000Y-106680000D03*
X128270000Y-106680000D03*
X125730000Y-106680000D03*
X123190000Y-106680000D03*
X120650000Y-106680000D03*
X118110000Y-106680000D03*
X115570000Y-106680000D03*
X115570000Y-114300000D03*
X118110000Y-114300000D03*
X120650000Y-114300000D03*
X123190000Y-114300000D03*
X125730000Y-114300000D03*
X128270000Y-114300000D03*
X130810000Y-114300000D03*
X133350000Y-114300000D03*
%TD*%
D13*
%TO.C,IC2*%
X107950000Y-76200000D03*
D12*
X110490000Y-76200000D03*
X113030000Y-76200000D03*
X115570000Y-76200000D03*
X118110000Y-76200000D03*
X120650000Y-76200000D03*
X123190000Y-76200000D03*
X125730000Y-76200000D03*
X125730000Y-68580000D03*
X123190000Y-68580000D03*
X120650000Y-68580000D03*
X118110000Y-68580000D03*
X115570000Y-68580000D03*
X113030000Y-68580000D03*
X110490000Y-68580000D03*
X107950000Y-68580000D03*
%TD*%
D11*
%TO.C,IC3*%
X125730000Y-55880000D03*
D12*
X123190000Y-55880000D03*
X120650000Y-55880000D03*
X118110000Y-55880000D03*
X115570000Y-55880000D03*
X113030000Y-55880000D03*
X110490000Y-55880000D03*
X107950000Y-55880000D03*
X107950000Y-63500000D03*
X110490000Y-63500000D03*
X113030000Y-63500000D03*
X115570000Y-63500000D03*
X118110000Y-63500000D03*
X120650000Y-63500000D03*
X123190000Y-63500000D03*
X125730000Y-63500000D03*
%TD*%
D13*
%TO.C,IC4*%
X135890000Y-76200000D03*
D12*
X138430000Y-76200000D03*
X140970000Y-76200000D03*
X143510000Y-76200000D03*
X146050000Y-76200000D03*
X148590000Y-76200000D03*
X151130000Y-76200000D03*
X153670000Y-76200000D03*
X156210000Y-76200000D03*
X158750000Y-76200000D03*
X158750000Y-68580000D03*
X156210000Y-68580000D03*
X153670000Y-68580000D03*
X151130000Y-68580000D03*
X148590000Y-68580000D03*
X146050000Y-68580000D03*
X143510000Y-68580000D03*
X140970000Y-68580000D03*
X138430000Y-68580000D03*
X135890000Y-68580000D03*
%TD*%
D10*
%TO.C,R1*%
X137160000Y-53340000D03*
D12*
X137160000Y-63500000D03*
%TD*%
D10*
%TO.C,R2*%
X144780000Y-53340000D03*
D12*
X144780000Y-63500000D03*
%TD*%
D10*
%TO.C,R3*%
X152400000Y-53340000D03*
D12*
X152400000Y-63500000D03*
%TD*%
D10*
%TO.C,R4*%
X140970000Y-53340000D03*
D12*
X140970000Y-63500000D03*
%TD*%
D10*
%TO.C,R5*%
X148590000Y-53340000D03*
D12*
X148590000Y-63500000D03*
%TD*%
D10*
%TO.C,R6*%
X156210000Y-53340000D03*
D12*
X156210000Y-63500000D03*
%TD*%
D13*
%TO.C,U1*%
X115570000Y-99060000D03*
D12*
X118110000Y-99060000D03*
X120650000Y-99060000D03*
X123190000Y-99060000D03*
X125730000Y-99060000D03*
X128270000Y-99060000D03*
X130810000Y-99060000D03*
X133350000Y-99060000D03*
X135890000Y-99060000D03*
X138430000Y-99060000D03*
X140970000Y-99060000D03*
X143510000Y-99060000D03*
X146050000Y-99060000D03*
X148590000Y-99060000D03*
X151130000Y-99060000D03*
X153670000Y-99060000D03*
X153670000Y-83820000D03*
X151130000Y-83820000D03*
X148590000Y-83820000D03*
X146050000Y-83820000D03*
X143510000Y-83820000D03*
X140970000Y-83820000D03*
X138430000Y-83820000D03*
X135890000Y-83820000D03*
X133350000Y-83820000D03*
X130810000Y-83820000D03*
X128270000Y-83820000D03*
X125730000Y-83820000D03*
X123190000Y-83820000D03*
X120650000Y-83820000D03*
X118110000Y-83820000D03*
X115570000Y-83820000D03*
%TD*%
D14*
%TO.C,X1*%
X139192000Y-46990000D03*
X141478000Y-46990000D03*
X143764000Y-46990000D03*
X146050000Y-46990000D03*
X148336000Y-46990000D03*
X138049000Y-44450000D03*
X140335000Y-44450000D03*
X142621000Y-44450000D03*
X144907000Y-44450000D03*
X147193000Y-44450000D03*
X139192000Y-41910000D03*
X141478000Y-41910000D03*
X143764000Y-41910000D03*
X146050000Y-41910000D03*
X148336000Y-41910000D03*
D15*
X131013200Y-44450000D03*
X156006800Y-44450000D03*
%TD*%
D10*
%TO.C,C2*%
X105410000Y-106680000D03*
X110410000Y-106680000D03*
%TD*%
%TO.C,C3*%
X130810000Y-69850000D03*
X130810000Y-74850000D03*
%TD*%
%TO.C,C4*%
X130810000Y-62230000D03*
X130810000Y-57230000D03*
%TD*%
%TO.C,C5*%
X163830000Y-87630000D03*
X163830000Y-92630000D03*
%TD*%
%TO.C,C6*%
X163830000Y-69850000D03*
X163830000Y-74850000D03*
%TD*%
D16*
%TO.C,P2*%
X118110000Y-50800000D03*
D17*
X120650000Y-50800000D03*
X123190000Y-50800000D03*
%TD*%
D16*
%TO.C,P3*%
X107950000Y-50800000D03*
D17*
X110490000Y-50800000D03*
X113030000Y-50800000D03*
%TD*%
D12*
%TO.C,QG1*%
X156210000Y-106680000D03*
X148590000Y-106680000D03*
X140970000Y-106680000D03*
X140970000Y-114300000D03*
X156210000Y-114300000D03*
X148590000Y-114300000D03*
%TD*%
D18*
%TO.C,REF\u002A\u002A*%
X162560000Y-36830000D03*
%TD*%
D16*
%TO.C,P1*%
X118110000Y-43180000D03*
D17*
X120650000Y-43180000D03*
X123190000Y-43180000D03*
%TD*%
D18*
%TO.C,REF\u002A\u002A*%
X107950000Y-36830000D03*
%TD*%
%TO.C,REF\u002A\u002A*%
X107950000Y-113030000D03*
%TD*%
%TO.C,REF\u002A\u002A*%
X162560000Y-113030000D03*
%TD*%
M02*
