%TF.GenerationSoftware,KiCad,Pcbnew,7.0.7*%
%TF.CreationDate,2023-09-08T23:17:23+01:00*%
%TF.ProjectId,dumb-vga,64756d62-2d76-4676-912e-6b696361645f,v0.7*%
%TF.SameCoordinates,Original*%
%TF.FileFunction,Legend,Top*%
%TF.FilePolarity,Positive*%
%FSLAX46Y46*%
G04 Gerber Fmt 4.6, Leading zero omitted, Abs format (unit mm)*
G04 Created by KiCad (PCBNEW 7.0.7) date 2023-09-08 23:17:23*
%MOMM*%
%LPD*%
G01*
G04 APERTURE LIST*
%ADD10C,0.150000*%
%ADD11C,0.120000*%
%ADD12C,0.127000*%
%ADD13C,1.676400*%
%ADD14C,5.080000*%
%ADD15O,1.600000X1.600000*%
G04 APERTURE END LIST*
D10*
X164284819Y-64004649D02*
X163284819Y-64004649D01*
X164237200Y-64004649D02*
X164284819Y-64099887D01*
X164284819Y-64099887D02*
X164284819Y-64290363D01*
X164284819Y-64290363D02*
X164237200Y-64385601D01*
X164237200Y-64385601D02*
X164189580Y-64433220D01*
X164189580Y-64433220D02*
X164094342Y-64480839D01*
X164094342Y-64480839D02*
X163808628Y-64480839D01*
X163808628Y-64480839D02*
X163713390Y-64433220D01*
X163713390Y-64433220D02*
X163665771Y-64385601D01*
X163665771Y-64385601D02*
X163618152Y-64290363D01*
X163618152Y-64290363D02*
X163618152Y-64099887D01*
X163618152Y-64099887D02*
X163665771Y-64004649D01*
X163618152Y-63099887D02*
X164284819Y-63099887D01*
X163618152Y-63528458D02*
X164141961Y-63528458D01*
X164141961Y-63528458D02*
X164237200Y-63480839D01*
X164237200Y-63480839D02*
X164284819Y-63385601D01*
X164284819Y-63385601D02*
X164284819Y-63242744D01*
X164284819Y-63242744D02*
X164237200Y-63147506D01*
X164237200Y-63147506D02*
X164189580Y-63099887D01*
X164284819Y-62623696D02*
X163618152Y-62623696D01*
X163713390Y-62623696D02*
X163665771Y-62576077D01*
X163665771Y-62576077D02*
X163618152Y-62480839D01*
X163618152Y-62480839D02*
X163618152Y-62337982D01*
X163618152Y-62337982D02*
X163665771Y-62242744D01*
X163665771Y-62242744D02*
X163761009Y-62195125D01*
X163761009Y-62195125D02*
X164284819Y-62195125D01*
X163761009Y-62195125D02*
X163665771Y-62147506D01*
X163665771Y-62147506D02*
X163618152Y-62052268D01*
X163618152Y-62052268D02*
X163618152Y-61909411D01*
X163618152Y-61909411D02*
X163665771Y-61814172D01*
X163665771Y-61814172D02*
X163761009Y-61766553D01*
X163761009Y-61766553D02*
X164284819Y-61766553D01*
X164284819Y-61290363D02*
X163284819Y-61290363D01*
X163665771Y-61290363D02*
X163618152Y-61195125D01*
X163618152Y-61195125D02*
X163618152Y-61004649D01*
X163618152Y-61004649D02*
X163665771Y-60909411D01*
X163665771Y-60909411D02*
X163713390Y-60861792D01*
X163713390Y-60861792D02*
X163808628Y-60814173D01*
X163808628Y-60814173D02*
X164094342Y-60814173D01*
X164094342Y-60814173D02*
X164189580Y-60861792D01*
X164189580Y-60861792D02*
X164237200Y-60909411D01*
X164237200Y-60909411D02*
X164284819Y-61004649D01*
X164284819Y-61004649D02*
X164284819Y-61195125D01*
X164284819Y-61195125D02*
X164237200Y-61290363D01*
X164380057Y-60623697D02*
X164380057Y-59861792D01*
X163618152Y-59718934D02*
X164284819Y-59480839D01*
X164284819Y-59480839D02*
X163618152Y-59242744D01*
X163618152Y-58433220D02*
X164427676Y-58433220D01*
X164427676Y-58433220D02*
X164522914Y-58480839D01*
X164522914Y-58480839D02*
X164570533Y-58528458D01*
X164570533Y-58528458D02*
X164618152Y-58623696D01*
X164618152Y-58623696D02*
X164618152Y-58766553D01*
X164618152Y-58766553D02*
X164570533Y-58861791D01*
X164237200Y-58433220D02*
X164284819Y-58528458D01*
X164284819Y-58528458D02*
X164284819Y-58718934D01*
X164284819Y-58718934D02*
X164237200Y-58814172D01*
X164237200Y-58814172D02*
X164189580Y-58861791D01*
X164189580Y-58861791D02*
X164094342Y-58909410D01*
X164094342Y-58909410D02*
X163808628Y-58909410D01*
X163808628Y-58909410D02*
X163713390Y-58861791D01*
X163713390Y-58861791D02*
X163665771Y-58814172D01*
X163665771Y-58814172D02*
X163618152Y-58718934D01*
X163618152Y-58718934D02*
X163618152Y-58528458D01*
X163618152Y-58528458D02*
X163665771Y-58433220D01*
X164284819Y-57528458D02*
X163761009Y-57528458D01*
X163761009Y-57528458D02*
X163665771Y-57576077D01*
X163665771Y-57576077D02*
X163618152Y-57671315D01*
X163618152Y-57671315D02*
X163618152Y-57861791D01*
X163618152Y-57861791D02*
X163665771Y-57957029D01*
X164237200Y-57528458D02*
X164284819Y-57623696D01*
X164284819Y-57623696D02*
X164284819Y-57861791D01*
X164284819Y-57861791D02*
X164237200Y-57957029D01*
X164237200Y-57957029D02*
X164141961Y-58004648D01*
X164141961Y-58004648D02*
X164046723Y-58004648D01*
X164046723Y-58004648D02*
X163951485Y-57957029D01*
X163951485Y-57957029D02*
X163903866Y-57861791D01*
X163903866Y-57861791D02*
X163903866Y-57623696D01*
X163903866Y-57623696D02*
X163856247Y-57528458D01*
X163903866Y-56290362D02*
X163903866Y-55528458D01*
X163380057Y-54337981D02*
X163332438Y-54290362D01*
X163332438Y-54290362D02*
X163284819Y-54195124D01*
X163284819Y-54195124D02*
X163284819Y-53957029D01*
X163284819Y-53957029D02*
X163332438Y-53861791D01*
X163332438Y-53861791D02*
X163380057Y-53814172D01*
X163380057Y-53814172D02*
X163475295Y-53766553D01*
X163475295Y-53766553D02*
X163570533Y-53766553D01*
X163570533Y-53766553D02*
X163713390Y-53814172D01*
X163713390Y-53814172D02*
X164284819Y-54385600D01*
X164284819Y-54385600D02*
X164284819Y-53766553D01*
X163284819Y-53147505D02*
X163284819Y-53052267D01*
X163284819Y-53052267D02*
X163332438Y-52957029D01*
X163332438Y-52957029D02*
X163380057Y-52909410D01*
X163380057Y-52909410D02*
X163475295Y-52861791D01*
X163475295Y-52861791D02*
X163665771Y-52814172D01*
X163665771Y-52814172D02*
X163903866Y-52814172D01*
X163903866Y-52814172D02*
X164094342Y-52861791D01*
X164094342Y-52861791D02*
X164189580Y-52909410D01*
X164189580Y-52909410D02*
X164237200Y-52957029D01*
X164237200Y-52957029D02*
X164284819Y-53052267D01*
X164284819Y-53052267D02*
X164284819Y-53147505D01*
X164284819Y-53147505D02*
X164237200Y-53242743D01*
X164237200Y-53242743D02*
X164189580Y-53290362D01*
X164189580Y-53290362D02*
X164094342Y-53337981D01*
X164094342Y-53337981D02*
X163903866Y-53385600D01*
X163903866Y-53385600D02*
X163665771Y-53385600D01*
X163665771Y-53385600D02*
X163475295Y-53337981D01*
X163475295Y-53337981D02*
X163380057Y-53290362D01*
X163380057Y-53290362D02*
X163332438Y-53242743D01*
X163332438Y-53242743D02*
X163284819Y-53147505D01*
X164284819Y-51861791D02*
X164284819Y-52433219D01*
X164284819Y-52147505D02*
X163284819Y-52147505D01*
X163284819Y-52147505D02*
X163427676Y-52242743D01*
X163427676Y-52242743D02*
X163522914Y-52337981D01*
X163522914Y-52337981D02*
X163570533Y-52433219D01*
X163284819Y-51004648D02*
X163284819Y-51195124D01*
X163284819Y-51195124D02*
X163332438Y-51290362D01*
X163332438Y-51290362D02*
X163380057Y-51337981D01*
X163380057Y-51337981D02*
X163522914Y-51433219D01*
X163522914Y-51433219D02*
X163713390Y-51480838D01*
X163713390Y-51480838D02*
X164094342Y-51480838D01*
X164094342Y-51480838D02*
X164189580Y-51433219D01*
X164189580Y-51433219D02*
X164237200Y-51385600D01*
X164237200Y-51385600D02*
X164284819Y-51290362D01*
X164284819Y-51290362D02*
X164284819Y-51099886D01*
X164284819Y-51099886D02*
X164237200Y-51004648D01*
X164237200Y-51004648D02*
X164189580Y-50957029D01*
X164189580Y-50957029D02*
X164094342Y-50909410D01*
X164094342Y-50909410D02*
X163856247Y-50909410D01*
X163856247Y-50909410D02*
X163761009Y-50957029D01*
X163761009Y-50957029D02*
X163713390Y-51004648D01*
X163713390Y-51004648D02*
X163665771Y-51099886D01*
X163665771Y-51099886D02*
X163665771Y-51290362D01*
X163665771Y-51290362D02*
X163713390Y-51385600D01*
X163713390Y-51385600D02*
X163761009Y-51433219D01*
X163761009Y-51433219D02*
X163856247Y-51480838D01*
X163903866Y-49718933D02*
X163903866Y-48957029D01*
X163618152Y-47814171D02*
X164284819Y-47576076D01*
X164284819Y-47576076D02*
X163618152Y-47337981D01*
X163284819Y-46766552D02*
X163284819Y-46671314D01*
X163284819Y-46671314D02*
X163332438Y-46576076D01*
X163332438Y-46576076D02*
X163380057Y-46528457D01*
X163380057Y-46528457D02*
X163475295Y-46480838D01*
X163475295Y-46480838D02*
X163665771Y-46433219D01*
X163665771Y-46433219D02*
X163903866Y-46433219D01*
X163903866Y-46433219D02*
X164094342Y-46480838D01*
X164094342Y-46480838D02*
X164189580Y-46528457D01*
X164189580Y-46528457D02*
X164237200Y-46576076D01*
X164237200Y-46576076D02*
X164284819Y-46671314D01*
X164284819Y-46671314D02*
X164284819Y-46766552D01*
X164284819Y-46766552D02*
X164237200Y-46861790D01*
X164237200Y-46861790D02*
X164189580Y-46909409D01*
X164189580Y-46909409D02*
X164094342Y-46957028D01*
X164094342Y-46957028D02*
X163903866Y-47004647D01*
X163903866Y-47004647D02*
X163665771Y-47004647D01*
X163665771Y-47004647D02*
X163475295Y-46957028D01*
X163475295Y-46957028D02*
X163380057Y-46909409D01*
X163380057Y-46909409D02*
X163332438Y-46861790D01*
X163332438Y-46861790D02*
X163284819Y-46766552D01*
X164189580Y-46004647D02*
X164237200Y-45957028D01*
X164237200Y-45957028D02*
X164284819Y-46004647D01*
X164284819Y-46004647D02*
X164237200Y-46052266D01*
X164237200Y-46052266D02*
X164189580Y-46004647D01*
X164189580Y-46004647D02*
X164284819Y-46004647D01*
X163284819Y-45623695D02*
X163284819Y-44957029D01*
X163284819Y-44957029D02*
X164284819Y-45385600D01*
X161697200Y-64480839D02*
X161744819Y-64385601D01*
X161744819Y-64385601D02*
X161744819Y-64195125D01*
X161744819Y-64195125D02*
X161697200Y-64099887D01*
X161697200Y-64099887D02*
X161601961Y-64052268D01*
X161601961Y-64052268D02*
X161554342Y-64052268D01*
X161554342Y-64052268D02*
X161459104Y-64099887D01*
X161459104Y-64099887D02*
X161411485Y-64195125D01*
X161411485Y-64195125D02*
X161411485Y-64337982D01*
X161411485Y-64337982D02*
X161363866Y-64433220D01*
X161363866Y-64433220D02*
X161268628Y-64480839D01*
X161268628Y-64480839D02*
X161221009Y-64480839D01*
X161221009Y-64480839D02*
X161125771Y-64433220D01*
X161125771Y-64433220D02*
X161078152Y-64337982D01*
X161078152Y-64337982D02*
X161078152Y-64195125D01*
X161078152Y-64195125D02*
X161125771Y-64099887D01*
X161078152Y-63195125D02*
X161887676Y-63195125D01*
X161887676Y-63195125D02*
X161982914Y-63242744D01*
X161982914Y-63242744D02*
X162030533Y-63290363D01*
X162030533Y-63290363D02*
X162078152Y-63385601D01*
X162078152Y-63385601D02*
X162078152Y-63528458D01*
X162078152Y-63528458D02*
X162030533Y-63623696D01*
X161697200Y-63195125D02*
X161744819Y-63290363D01*
X161744819Y-63290363D02*
X161744819Y-63480839D01*
X161744819Y-63480839D02*
X161697200Y-63576077D01*
X161697200Y-63576077D02*
X161649580Y-63623696D01*
X161649580Y-63623696D02*
X161554342Y-63671315D01*
X161554342Y-63671315D02*
X161268628Y-63671315D01*
X161268628Y-63671315D02*
X161173390Y-63623696D01*
X161173390Y-63623696D02*
X161125771Y-63576077D01*
X161125771Y-63576077D02*
X161078152Y-63480839D01*
X161078152Y-63480839D02*
X161078152Y-63290363D01*
X161078152Y-63290363D02*
X161125771Y-63195125D01*
X161078152Y-62861791D02*
X161078152Y-62480839D01*
X161744819Y-62718934D02*
X160887676Y-62718934D01*
X160887676Y-62718934D02*
X160792438Y-62671315D01*
X160792438Y-62671315D02*
X160744819Y-62576077D01*
X160744819Y-62576077D02*
X160744819Y-62480839D01*
X161268628Y-61528458D02*
X161221009Y-61576077D01*
X161221009Y-61576077D02*
X161173390Y-61671315D01*
X161173390Y-61671315D02*
X161173390Y-61766553D01*
X161173390Y-61766553D02*
X161221009Y-61861791D01*
X161221009Y-61861791D02*
X161268628Y-61909410D01*
X161268628Y-61909410D02*
X161363866Y-61957029D01*
X161363866Y-61957029D02*
X161459104Y-61957029D01*
X161459104Y-61957029D02*
X161554342Y-61909410D01*
X161554342Y-61909410D02*
X161601961Y-61861791D01*
X161601961Y-61861791D02*
X161649580Y-61766553D01*
X161649580Y-61766553D02*
X161649580Y-61671315D01*
X161649580Y-61671315D02*
X161601961Y-61576077D01*
X161601961Y-61576077D02*
X161554342Y-61528458D01*
X161173390Y-61528458D02*
X161554342Y-61528458D01*
X161554342Y-61528458D02*
X161601961Y-61480839D01*
X161601961Y-61480839D02*
X161601961Y-61433220D01*
X161601961Y-61433220D02*
X161554342Y-61337981D01*
X161554342Y-61337981D02*
X161459104Y-61290362D01*
X161459104Y-61290362D02*
X161221009Y-61290362D01*
X161221009Y-61290362D02*
X161078152Y-61385601D01*
X161078152Y-61385601D02*
X160982914Y-61528458D01*
X160982914Y-61528458D02*
X160935295Y-61718934D01*
X160935295Y-61718934D02*
X160982914Y-61909410D01*
X160982914Y-61909410D02*
X161078152Y-62052267D01*
X161078152Y-62052267D02*
X161221009Y-62147505D01*
X161221009Y-62147505D02*
X161411485Y-62195124D01*
X161411485Y-62195124D02*
X161601961Y-62147505D01*
X161601961Y-62147505D02*
X161744819Y-62052267D01*
X161744819Y-62052267D02*
X161840057Y-61909410D01*
X161840057Y-61909410D02*
X161887676Y-61718934D01*
X161887676Y-61718934D02*
X161840057Y-61528458D01*
X161840057Y-61528458D02*
X161744819Y-61385601D01*
X161744819Y-60433220D02*
X161221009Y-60433220D01*
X161221009Y-60433220D02*
X161125771Y-60480839D01*
X161125771Y-60480839D02*
X161078152Y-60576077D01*
X161078152Y-60576077D02*
X161078152Y-60766553D01*
X161078152Y-60766553D02*
X161125771Y-60861791D01*
X161697200Y-60433220D02*
X161744819Y-60528458D01*
X161744819Y-60528458D02*
X161744819Y-60766553D01*
X161744819Y-60766553D02*
X161697200Y-60861791D01*
X161697200Y-60861791D02*
X161601961Y-60909410D01*
X161601961Y-60909410D02*
X161506723Y-60909410D01*
X161506723Y-60909410D02*
X161411485Y-60861791D01*
X161411485Y-60861791D02*
X161363866Y-60766553D01*
X161363866Y-60766553D02*
X161363866Y-60528458D01*
X161363866Y-60528458D02*
X161316247Y-60433220D01*
X161744819Y-59957029D02*
X161078152Y-59957029D01*
X161268628Y-59957029D02*
X161173390Y-59909410D01*
X161173390Y-59909410D02*
X161125771Y-59861791D01*
X161125771Y-59861791D02*
X161078152Y-59766553D01*
X161078152Y-59766553D02*
X161078152Y-59671315D01*
X161744819Y-59337981D02*
X160744819Y-59337981D01*
X161125771Y-59337981D02*
X161078152Y-59242743D01*
X161078152Y-59242743D02*
X161078152Y-59052267D01*
X161078152Y-59052267D02*
X161125771Y-58957029D01*
X161125771Y-58957029D02*
X161173390Y-58909410D01*
X161173390Y-58909410D02*
X161268628Y-58861791D01*
X161268628Y-58861791D02*
X161554342Y-58861791D01*
X161554342Y-58861791D02*
X161649580Y-58909410D01*
X161649580Y-58909410D02*
X161697200Y-58957029D01*
X161697200Y-58957029D02*
X161744819Y-59052267D01*
X161744819Y-59052267D02*
X161744819Y-59242743D01*
X161744819Y-59242743D02*
X161697200Y-59337981D01*
X161744819Y-58433219D02*
X161078152Y-58433219D01*
X160744819Y-58433219D02*
X160792438Y-58480838D01*
X160792438Y-58480838D02*
X160840057Y-58433219D01*
X160840057Y-58433219D02*
X160792438Y-58385600D01*
X160792438Y-58385600D02*
X160744819Y-58433219D01*
X160744819Y-58433219D02*
X160840057Y-58433219D01*
X161078152Y-58099886D02*
X161078152Y-57718934D01*
X160744819Y-57957029D02*
X161601961Y-57957029D01*
X161601961Y-57957029D02*
X161697200Y-57909410D01*
X161697200Y-57909410D02*
X161744819Y-57814172D01*
X161744819Y-57814172D02*
X161744819Y-57718934D01*
X161744819Y-57385600D02*
X161078152Y-57385600D01*
X161268628Y-57385600D02*
X161173390Y-57337981D01*
X161173390Y-57337981D02*
X161125771Y-57290362D01*
X161125771Y-57290362D02*
X161078152Y-57195124D01*
X161078152Y-57195124D02*
X161078152Y-57099886D01*
X161744819Y-56337981D02*
X161221009Y-56337981D01*
X161221009Y-56337981D02*
X161125771Y-56385600D01*
X161125771Y-56385600D02*
X161078152Y-56480838D01*
X161078152Y-56480838D02*
X161078152Y-56671314D01*
X161078152Y-56671314D02*
X161125771Y-56766552D01*
X161697200Y-56337981D02*
X161744819Y-56433219D01*
X161744819Y-56433219D02*
X161744819Y-56671314D01*
X161744819Y-56671314D02*
X161697200Y-56766552D01*
X161697200Y-56766552D02*
X161601961Y-56814171D01*
X161601961Y-56814171D02*
X161506723Y-56814171D01*
X161506723Y-56814171D02*
X161411485Y-56766552D01*
X161411485Y-56766552D02*
X161363866Y-56671314D01*
X161363866Y-56671314D02*
X161363866Y-56433219D01*
X161363866Y-56433219D02*
X161316247Y-56337981D01*
X161744819Y-55861790D02*
X161078152Y-55861790D01*
X161268628Y-55861790D02*
X161173390Y-55814171D01*
X161173390Y-55814171D02*
X161125771Y-55766552D01*
X161125771Y-55766552D02*
X161078152Y-55671314D01*
X161078152Y-55671314D02*
X161078152Y-55576076D01*
X161078152Y-55337980D02*
X161744819Y-55099885D01*
X161078152Y-54861790D02*
X161744819Y-55099885D01*
X161744819Y-55099885D02*
X161982914Y-55195123D01*
X161982914Y-55195123D02*
X162030533Y-55242742D01*
X162030533Y-55242742D02*
X162078152Y-55337980D01*
X161649580Y-54480837D02*
X161697200Y-54433218D01*
X161697200Y-54433218D02*
X161744819Y-54480837D01*
X161744819Y-54480837D02*
X161697200Y-54528456D01*
X161697200Y-54528456D02*
X161649580Y-54480837D01*
X161649580Y-54480837D02*
X161744819Y-54480837D01*
X161078152Y-54004647D02*
X161744819Y-54004647D01*
X161173390Y-54004647D02*
X161125771Y-53957028D01*
X161125771Y-53957028D02*
X161078152Y-53861790D01*
X161078152Y-53861790D02*
X161078152Y-53718933D01*
X161078152Y-53718933D02*
X161125771Y-53623695D01*
X161125771Y-53623695D02*
X161221009Y-53576076D01*
X161221009Y-53576076D02*
X161744819Y-53576076D01*
X161744819Y-52671314D02*
X161221009Y-52671314D01*
X161221009Y-52671314D02*
X161125771Y-52718933D01*
X161125771Y-52718933D02*
X161078152Y-52814171D01*
X161078152Y-52814171D02*
X161078152Y-53004647D01*
X161078152Y-53004647D02*
X161125771Y-53099885D01*
X161697200Y-52671314D02*
X161744819Y-52766552D01*
X161744819Y-52766552D02*
X161744819Y-53004647D01*
X161744819Y-53004647D02*
X161697200Y-53099885D01*
X161697200Y-53099885D02*
X161601961Y-53147504D01*
X161601961Y-53147504D02*
X161506723Y-53147504D01*
X161506723Y-53147504D02*
X161411485Y-53099885D01*
X161411485Y-53099885D02*
X161363866Y-53004647D01*
X161363866Y-53004647D02*
X161363866Y-52766552D01*
X161363866Y-52766552D02*
X161316247Y-52671314D01*
X161744819Y-52195123D02*
X161078152Y-52195123D01*
X161173390Y-52195123D02*
X161125771Y-52147504D01*
X161125771Y-52147504D02*
X161078152Y-52052266D01*
X161078152Y-52052266D02*
X161078152Y-51909409D01*
X161078152Y-51909409D02*
X161125771Y-51814171D01*
X161125771Y-51814171D02*
X161221009Y-51766552D01*
X161221009Y-51766552D02*
X161744819Y-51766552D01*
X161221009Y-51766552D02*
X161125771Y-51718933D01*
X161125771Y-51718933D02*
X161078152Y-51623695D01*
X161078152Y-51623695D02*
X161078152Y-51480838D01*
X161078152Y-51480838D02*
X161125771Y-51385599D01*
X161125771Y-51385599D02*
X161221009Y-51337980D01*
X161221009Y-51337980D02*
X161744819Y-51337980D01*
X161697200Y-50480838D02*
X161744819Y-50576076D01*
X161744819Y-50576076D02*
X161744819Y-50766552D01*
X161744819Y-50766552D02*
X161697200Y-50861790D01*
X161697200Y-50861790D02*
X161601961Y-50909409D01*
X161601961Y-50909409D02*
X161221009Y-50909409D01*
X161221009Y-50909409D02*
X161125771Y-50861790D01*
X161125771Y-50861790D02*
X161078152Y-50766552D01*
X161078152Y-50766552D02*
X161078152Y-50576076D01*
X161078152Y-50576076D02*
X161125771Y-50480838D01*
X161125771Y-50480838D02*
X161221009Y-50433219D01*
X161221009Y-50433219D02*
X161316247Y-50433219D01*
X161316247Y-50433219D02*
X161411485Y-50909409D01*
X110363333Y-49849580D02*
X110315714Y-49897200D01*
X110315714Y-49897200D02*
X110172857Y-49944819D01*
X110172857Y-49944819D02*
X110077619Y-49944819D01*
X110077619Y-49944819D02*
X109934762Y-49897200D01*
X109934762Y-49897200D02*
X109839524Y-49801961D01*
X109839524Y-49801961D02*
X109791905Y-49706723D01*
X109791905Y-49706723D02*
X109744286Y-49516247D01*
X109744286Y-49516247D02*
X109744286Y-49373390D01*
X109744286Y-49373390D02*
X109791905Y-49182914D01*
X109791905Y-49182914D02*
X109839524Y-49087676D01*
X109839524Y-49087676D02*
X109934762Y-48992438D01*
X109934762Y-48992438D02*
X110077619Y-48944819D01*
X110077619Y-48944819D02*
X110172857Y-48944819D01*
X110172857Y-48944819D02*
X110315714Y-48992438D01*
X110315714Y-48992438D02*
X110363333Y-49040057D01*
X111315714Y-49944819D02*
X110744286Y-49944819D01*
X111030000Y-49944819D02*
X111030000Y-48944819D01*
X111030000Y-48944819D02*
X110934762Y-49087676D01*
X110934762Y-49087676D02*
X110839524Y-49182914D01*
X110839524Y-49182914D02*
X110744286Y-49230533D01*
X136134819Y-111466189D02*
X135134819Y-111466189D01*
X136039580Y-110418571D02*
X136087200Y-110466190D01*
X136087200Y-110466190D02*
X136134819Y-110609047D01*
X136134819Y-110609047D02*
X136134819Y-110704285D01*
X136134819Y-110704285D02*
X136087200Y-110847142D01*
X136087200Y-110847142D02*
X135991961Y-110942380D01*
X135991961Y-110942380D02*
X135896723Y-110989999D01*
X135896723Y-110989999D02*
X135706247Y-111037618D01*
X135706247Y-111037618D02*
X135563390Y-111037618D01*
X135563390Y-111037618D02*
X135372914Y-110989999D01*
X135372914Y-110989999D02*
X135277676Y-110942380D01*
X135277676Y-110942380D02*
X135182438Y-110847142D01*
X135182438Y-110847142D02*
X135134819Y-110704285D01*
X135134819Y-110704285D02*
X135134819Y-110609047D01*
X135134819Y-110609047D02*
X135182438Y-110466190D01*
X135182438Y-110466190D02*
X135230057Y-110418571D01*
X136134819Y-109466190D02*
X136134819Y-110037618D01*
X136134819Y-109751904D02*
X135134819Y-109751904D01*
X135134819Y-109751904D02*
X135277676Y-109847142D01*
X135277676Y-109847142D02*
X135372914Y-109942380D01*
X135372914Y-109942380D02*
X135420533Y-110037618D01*
X106074819Y-73366189D02*
X105074819Y-73366189D01*
X105979580Y-72318571D02*
X106027200Y-72366190D01*
X106027200Y-72366190D02*
X106074819Y-72509047D01*
X106074819Y-72509047D02*
X106074819Y-72604285D01*
X106074819Y-72604285D02*
X106027200Y-72747142D01*
X106027200Y-72747142D02*
X105931961Y-72842380D01*
X105931961Y-72842380D02*
X105836723Y-72889999D01*
X105836723Y-72889999D02*
X105646247Y-72937618D01*
X105646247Y-72937618D02*
X105503390Y-72937618D01*
X105503390Y-72937618D02*
X105312914Y-72889999D01*
X105312914Y-72889999D02*
X105217676Y-72842380D01*
X105217676Y-72842380D02*
X105122438Y-72747142D01*
X105122438Y-72747142D02*
X105074819Y-72604285D01*
X105074819Y-72604285D02*
X105074819Y-72509047D01*
X105074819Y-72509047D02*
X105122438Y-72366190D01*
X105122438Y-72366190D02*
X105170057Y-72318571D01*
X105170057Y-71937618D02*
X105122438Y-71889999D01*
X105122438Y-71889999D02*
X105074819Y-71794761D01*
X105074819Y-71794761D02*
X105074819Y-71556666D01*
X105074819Y-71556666D02*
X105122438Y-71461428D01*
X105122438Y-71461428D02*
X105170057Y-71413809D01*
X105170057Y-71413809D02*
X105265295Y-71366190D01*
X105265295Y-71366190D02*
X105360533Y-71366190D01*
X105360533Y-71366190D02*
X105503390Y-71413809D01*
X105503390Y-71413809D02*
X106074819Y-71985237D01*
X106074819Y-71985237D02*
X106074819Y-71366190D01*
X128514819Y-60666189D02*
X127514819Y-60666189D01*
X128419580Y-59618571D02*
X128467200Y-59666190D01*
X128467200Y-59666190D02*
X128514819Y-59809047D01*
X128514819Y-59809047D02*
X128514819Y-59904285D01*
X128514819Y-59904285D02*
X128467200Y-60047142D01*
X128467200Y-60047142D02*
X128371961Y-60142380D01*
X128371961Y-60142380D02*
X128276723Y-60189999D01*
X128276723Y-60189999D02*
X128086247Y-60237618D01*
X128086247Y-60237618D02*
X127943390Y-60237618D01*
X127943390Y-60237618D02*
X127752914Y-60189999D01*
X127752914Y-60189999D02*
X127657676Y-60142380D01*
X127657676Y-60142380D02*
X127562438Y-60047142D01*
X127562438Y-60047142D02*
X127514819Y-59904285D01*
X127514819Y-59904285D02*
X127514819Y-59809047D01*
X127514819Y-59809047D02*
X127562438Y-59666190D01*
X127562438Y-59666190D02*
X127610057Y-59618571D01*
X127514819Y-59285237D02*
X127514819Y-58666190D01*
X127514819Y-58666190D02*
X127895771Y-58999523D01*
X127895771Y-58999523D02*
X127895771Y-58856666D01*
X127895771Y-58856666D02*
X127943390Y-58761428D01*
X127943390Y-58761428D02*
X127991009Y-58713809D01*
X127991009Y-58713809D02*
X128086247Y-58666190D01*
X128086247Y-58666190D02*
X128324342Y-58666190D01*
X128324342Y-58666190D02*
X128419580Y-58713809D01*
X128419580Y-58713809D02*
X128467200Y-58761428D01*
X128467200Y-58761428D02*
X128514819Y-58856666D01*
X128514819Y-58856666D02*
X128514819Y-59142380D01*
X128514819Y-59142380D02*
X128467200Y-59237618D01*
X128467200Y-59237618D02*
X128419580Y-59285237D01*
X134014819Y-73366189D02*
X133014819Y-73366189D01*
X133919580Y-72318571D02*
X133967200Y-72366190D01*
X133967200Y-72366190D02*
X134014819Y-72509047D01*
X134014819Y-72509047D02*
X134014819Y-72604285D01*
X134014819Y-72604285D02*
X133967200Y-72747142D01*
X133967200Y-72747142D02*
X133871961Y-72842380D01*
X133871961Y-72842380D02*
X133776723Y-72889999D01*
X133776723Y-72889999D02*
X133586247Y-72937618D01*
X133586247Y-72937618D02*
X133443390Y-72937618D01*
X133443390Y-72937618D02*
X133252914Y-72889999D01*
X133252914Y-72889999D02*
X133157676Y-72842380D01*
X133157676Y-72842380D02*
X133062438Y-72747142D01*
X133062438Y-72747142D02*
X133014819Y-72604285D01*
X133014819Y-72604285D02*
X133014819Y-72509047D01*
X133014819Y-72509047D02*
X133062438Y-72366190D01*
X133062438Y-72366190D02*
X133110057Y-72318571D01*
X133348152Y-71461428D02*
X134014819Y-71461428D01*
X132967200Y-71699523D02*
X133681485Y-71937618D01*
X133681485Y-71937618D02*
X133681485Y-71318571D01*
X139984819Y-58586666D02*
X139508628Y-58919999D01*
X139984819Y-59158094D02*
X138984819Y-59158094D01*
X138984819Y-59158094D02*
X138984819Y-58777142D01*
X138984819Y-58777142D02*
X139032438Y-58681904D01*
X139032438Y-58681904D02*
X139080057Y-58634285D01*
X139080057Y-58634285D02*
X139175295Y-58586666D01*
X139175295Y-58586666D02*
X139318152Y-58586666D01*
X139318152Y-58586666D02*
X139413390Y-58634285D01*
X139413390Y-58634285D02*
X139461009Y-58681904D01*
X139461009Y-58681904D02*
X139508628Y-58777142D01*
X139508628Y-58777142D02*
X139508628Y-59158094D01*
X139984819Y-57634285D02*
X139984819Y-58205713D01*
X139984819Y-57919999D02*
X138984819Y-57919999D01*
X138984819Y-57919999D02*
X139127676Y-58015237D01*
X139127676Y-58015237D02*
X139222914Y-58110475D01*
X139222914Y-58110475D02*
X139270533Y-58205713D01*
X147604819Y-58586666D02*
X147128628Y-58919999D01*
X147604819Y-59158094D02*
X146604819Y-59158094D01*
X146604819Y-59158094D02*
X146604819Y-58777142D01*
X146604819Y-58777142D02*
X146652438Y-58681904D01*
X146652438Y-58681904D02*
X146700057Y-58634285D01*
X146700057Y-58634285D02*
X146795295Y-58586666D01*
X146795295Y-58586666D02*
X146938152Y-58586666D01*
X146938152Y-58586666D02*
X147033390Y-58634285D01*
X147033390Y-58634285D02*
X147081009Y-58681904D01*
X147081009Y-58681904D02*
X147128628Y-58777142D01*
X147128628Y-58777142D02*
X147128628Y-59158094D01*
X146700057Y-58205713D02*
X146652438Y-58158094D01*
X146652438Y-58158094D02*
X146604819Y-58062856D01*
X146604819Y-58062856D02*
X146604819Y-57824761D01*
X146604819Y-57824761D02*
X146652438Y-57729523D01*
X146652438Y-57729523D02*
X146700057Y-57681904D01*
X146700057Y-57681904D02*
X146795295Y-57634285D01*
X146795295Y-57634285D02*
X146890533Y-57634285D01*
X146890533Y-57634285D02*
X147033390Y-57681904D01*
X147033390Y-57681904D02*
X147604819Y-58253332D01*
X147604819Y-58253332D02*
X147604819Y-57634285D01*
X155224819Y-58586666D02*
X154748628Y-58919999D01*
X155224819Y-59158094D02*
X154224819Y-59158094D01*
X154224819Y-59158094D02*
X154224819Y-58777142D01*
X154224819Y-58777142D02*
X154272438Y-58681904D01*
X154272438Y-58681904D02*
X154320057Y-58634285D01*
X154320057Y-58634285D02*
X154415295Y-58586666D01*
X154415295Y-58586666D02*
X154558152Y-58586666D01*
X154558152Y-58586666D02*
X154653390Y-58634285D01*
X154653390Y-58634285D02*
X154701009Y-58681904D01*
X154701009Y-58681904D02*
X154748628Y-58777142D01*
X154748628Y-58777142D02*
X154748628Y-59158094D01*
X154224819Y-58253332D02*
X154224819Y-57634285D01*
X154224819Y-57634285D02*
X154605771Y-57967618D01*
X154605771Y-57967618D02*
X154605771Y-57824761D01*
X154605771Y-57824761D02*
X154653390Y-57729523D01*
X154653390Y-57729523D02*
X154701009Y-57681904D01*
X154701009Y-57681904D02*
X154796247Y-57634285D01*
X154796247Y-57634285D02*
X155034342Y-57634285D01*
X155034342Y-57634285D02*
X155129580Y-57681904D01*
X155129580Y-57681904D02*
X155177200Y-57729523D01*
X155177200Y-57729523D02*
X155224819Y-57824761D01*
X155224819Y-57824761D02*
X155224819Y-58110475D01*
X155224819Y-58110475D02*
X155177200Y-58205713D01*
X155177200Y-58205713D02*
X155129580Y-58253332D01*
X143794819Y-58586666D02*
X143318628Y-58919999D01*
X143794819Y-59158094D02*
X142794819Y-59158094D01*
X142794819Y-59158094D02*
X142794819Y-58777142D01*
X142794819Y-58777142D02*
X142842438Y-58681904D01*
X142842438Y-58681904D02*
X142890057Y-58634285D01*
X142890057Y-58634285D02*
X142985295Y-58586666D01*
X142985295Y-58586666D02*
X143128152Y-58586666D01*
X143128152Y-58586666D02*
X143223390Y-58634285D01*
X143223390Y-58634285D02*
X143271009Y-58681904D01*
X143271009Y-58681904D02*
X143318628Y-58777142D01*
X143318628Y-58777142D02*
X143318628Y-59158094D01*
X143128152Y-57729523D02*
X143794819Y-57729523D01*
X142747200Y-57967618D02*
X143461485Y-58205713D01*
X143461485Y-58205713D02*
X143461485Y-57586666D01*
X151414819Y-58586666D02*
X150938628Y-58919999D01*
X151414819Y-59158094D02*
X150414819Y-59158094D01*
X150414819Y-59158094D02*
X150414819Y-58777142D01*
X150414819Y-58777142D02*
X150462438Y-58681904D01*
X150462438Y-58681904D02*
X150510057Y-58634285D01*
X150510057Y-58634285D02*
X150605295Y-58586666D01*
X150605295Y-58586666D02*
X150748152Y-58586666D01*
X150748152Y-58586666D02*
X150843390Y-58634285D01*
X150843390Y-58634285D02*
X150891009Y-58681904D01*
X150891009Y-58681904D02*
X150938628Y-58777142D01*
X150938628Y-58777142D02*
X150938628Y-59158094D01*
X150414819Y-57681904D02*
X150414819Y-58158094D01*
X150414819Y-58158094D02*
X150891009Y-58205713D01*
X150891009Y-58205713D02*
X150843390Y-58158094D01*
X150843390Y-58158094D02*
X150795771Y-58062856D01*
X150795771Y-58062856D02*
X150795771Y-57824761D01*
X150795771Y-57824761D02*
X150843390Y-57729523D01*
X150843390Y-57729523D02*
X150891009Y-57681904D01*
X150891009Y-57681904D02*
X150986247Y-57634285D01*
X150986247Y-57634285D02*
X151224342Y-57634285D01*
X151224342Y-57634285D02*
X151319580Y-57681904D01*
X151319580Y-57681904D02*
X151367200Y-57729523D01*
X151367200Y-57729523D02*
X151414819Y-57824761D01*
X151414819Y-57824761D02*
X151414819Y-58062856D01*
X151414819Y-58062856D02*
X151367200Y-58158094D01*
X151367200Y-58158094D02*
X151319580Y-58205713D01*
X159034819Y-58586666D02*
X158558628Y-58919999D01*
X159034819Y-59158094D02*
X158034819Y-59158094D01*
X158034819Y-59158094D02*
X158034819Y-58777142D01*
X158034819Y-58777142D02*
X158082438Y-58681904D01*
X158082438Y-58681904D02*
X158130057Y-58634285D01*
X158130057Y-58634285D02*
X158225295Y-58586666D01*
X158225295Y-58586666D02*
X158368152Y-58586666D01*
X158368152Y-58586666D02*
X158463390Y-58634285D01*
X158463390Y-58634285D02*
X158511009Y-58681904D01*
X158511009Y-58681904D02*
X158558628Y-58777142D01*
X158558628Y-58777142D02*
X158558628Y-59158094D01*
X158034819Y-57729523D02*
X158034819Y-57919999D01*
X158034819Y-57919999D02*
X158082438Y-58015237D01*
X158082438Y-58015237D02*
X158130057Y-58062856D01*
X158130057Y-58062856D02*
X158272914Y-58158094D01*
X158272914Y-58158094D02*
X158463390Y-58205713D01*
X158463390Y-58205713D02*
X158844342Y-58205713D01*
X158844342Y-58205713D02*
X158939580Y-58158094D01*
X158939580Y-58158094D02*
X158987200Y-58110475D01*
X158987200Y-58110475D02*
X159034819Y-58015237D01*
X159034819Y-58015237D02*
X159034819Y-57824761D01*
X159034819Y-57824761D02*
X158987200Y-57729523D01*
X158987200Y-57729523D02*
X158939580Y-57681904D01*
X158939580Y-57681904D02*
X158844342Y-57634285D01*
X158844342Y-57634285D02*
X158606247Y-57634285D01*
X158606247Y-57634285D02*
X158511009Y-57681904D01*
X158511009Y-57681904D02*
X158463390Y-57729523D01*
X158463390Y-57729523D02*
X158415771Y-57824761D01*
X158415771Y-57824761D02*
X158415771Y-58015237D01*
X158415771Y-58015237D02*
X158463390Y-58110475D01*
X158463390Y-58110475D02*
X158511009Y-58158094D01*
X158511009Y-58158094D02*
X158606247Y-58205713D01*
X112694819Y-92201904D02*
X113504342Y-92201904D01*
X113504342Y-92201904D02*
X113599580Y-92154285D01*
X113599580Y-92154285D02*
X113647200Y-92106666D01*
X113647200Y-92106666D02*
X113694819Y-92011428D01*
X113694819Y-92011428D02*
X113694819Y-91820952D01*
X113694819Y-91820952D02*
X113647200Y-91725714D01*
X113647200Y-91725714D02*
X113599580Y-91678095D01*
X113599580Y-91678095D02*
X113504342Y-91630476D01*
X113504342Y-91630476D02*
X112694819Y-91630476D01*
X113694819Y-90630476D02*
X113694819Y-91201904D01*
X113694819Y-90916190D02*
X112694819Y-90916190D01*
X112694819Y-90916190D02*
X112837676Y-91011428D01*
X112837676Y-91011428D02*
X112932914Y-91106666D01*
X112932914Y-91106666D02*
X112980533Y-91201904D01*
X142276285Y-43623231D02*
X143292285Y-45147231D01*
X143292285Y-43623231D02*
X142276285Y-45147231D01*
X144671142Y-45147231D02*
X143800285Y-45147231D01*
X144235714Y-45147231D02*
X144235714Y-43623231D01*
X144235714Y-43623231D02*
X144090571Y-43840945D01*
X144090571Y-43840945D02*
X143945428Y-43986088D01*
X143945428Y-43986088D02*
X143800285Y-44058660D01*
X140933713Y-43623231D02*
X141441713Y-45147231D01*
X141441713Y-45147231D02*
X141949713Y-43623231D01*
X143255999Y-43695802D02*
X143110857Y-43623231D01*
X143110857Y-43623231D02*
X142893142Y-43623231D01*
X142893142Y-43623231D02*
X142675428Y-43695802D01*
X142675428Y-43695802D02*
X142530285Y-43840945D01*
X142530285Y-43840945D02*
X142457714Y-43986088D01*
X142457714Y-43986088D02*
X142385142Y-44276374D01*
X142385142Y-44276374D02*
X142385142Y-44494088D01*
X142385142Y-44494088D02*
X142457714Y-44784374D01*
X142457714Y-44784374D02*
X142530285Y-44929517D01*
X142530285Y-44929517D02*
X142675428Y-45074660D01*
X142675428Y-45074660D02*
X142893142Y-45147231D01*
X142893142Y-45147231D02*
X143038285Y-45147231D01*
X143038285Y-45147231D02*
X143255999Y-45074660D01*
X143255999Y-45074660D02*
X143328571Y-45002088D01*
X143328571Y-45002088D02*
X143328571Y-44494088D01*
X143328571Y-44494088D02*
X143038285Y-44494088D01*
X143909142Y-44711802D02*
X144634857Y-44711802D01*
X143763999Y-45147231D02*
X144271999Y-43623231D01*
X144271999Y-43623231D02*
X144779999Y-45147231D01*
X145796000Y-44348945D02*
X145288000Y-44348945D01*
X145288000Y-45147231D02*
X145288000Y-43623231D01*
X145288000Y-43623231D02*
X146013714Y-43623231D01*
X107743333Y-104539580D02*
X107695714Y-104587200D01*
X107695714Y-104587200D02*
X107552857Y-104634819D01*
X107552857Y-104634819D02*
X107457619Y-104634819D01*
X107457619Y-104634819D02*
X107314762Y-104587200D01*
X107314762Y-104587200D02*
X107219524Y-104491961D01*
X107219524Y-104491961D02*
X107171905Y-104396723D01*
X107171905Y-104396723D02*
X107124286Y-104206247D01*
X107124286Y-104206247D02*
X107124286Y-104063390D01*
X107124286Y-104063390D02*
X107171905Y-103872914D01*
X107171905Y-103872914D02*
X107219524Y-103777676D01*
X107219524Y-103777676D02*
X107314762Y-103682438D01*
X107314762Y-103682438D02*
X107457619Y-103634819D01*
X107457619Y-103634819D02*
X107552857Y-103634819D01*
X107552857Y-103634819D02*
X107695714Y-103682438D01*
X107695714Y-103682438D02*
X107743333Y-103730057D01*
X108124286Y-103730057D02*
X108171905Y-103682438D01*
X108171905Y-103682438D02*
X108267143Y-103634819D01*
X108267143Y-103634819D02*
X108505238Y-103634819D01*
X108505238Y-103634819D02*
X108600476Y-103682438D01*
X108600476Y-103682438D02*
X108648095Y-103730057D01*
X108648095Y-103730057D02*
X108695714Y-103825295D01*
X108695714Y-103825295D02*
X108695714Y-103920533D01*
X108695714Y-103920533D02*
X108648095Y-104063390D01*
X108648095Y-104063390D02*
X108076667Y-104634819D01*
X108076667Y-104634819D02*
X108695714Y-104634819D01*
X133669580Y-72516666D02*
X133717200Y-72564285D01*
X133717200Y-72564285D02*
X133764819Y-72707142D01*
X133764819Y-72707142D02*
X133764819Y-72802380D01*
X133764819Y-72802380D02*
X133717200Y-72945237D01*
X133717200Y-72945237D02*
X133621961Y-73040475D01*
X133621961Y-73040475D02*
X133526723Y-73088094D01*
X133526723Y-73088094D02*
X133336247Y-73135713D01*
X133336247Y-73135713D02*
X133193390Y-73135713D01*
X133193390Y-73135713D02*
X133002914Y-73088094D01*
X133002914Y-73088094D02*
X132907676Y-73040475D01*
X132907676Y-73040475D02*
X132812438Y-72945237D01*
X132812438Y-72945237D02*
X132764819Y-72802380D01*
X132764819Y-72802380D02*
X132764819Y-72707142D01*
X132764819Y-72707142D02*
X132812438Y-72564285D01*
X132812438Y-72564285D02*
X132860057Y-72516666D01*
X132764819Y-72183332D02*
X132764819Y-71564285D01*
X132764819Y-71564285D02*
X133145771Y-71897618D01*
X133145771Y-71897618D02*
X133145771Y-71754761D01*
X133145771Y-71754761D02*
X133193390Y-71659523D01*
X133193390Y-71659523D02*
X133241009Y-71611904D01*
X133241009Y-71611904D02*
X133336247Y-71564285D01*
X133336247Y-71564285D02*
X133574342Y-71564285D01*
X133574342Y-71564285D02*
X133669580Y-71611904D01*
X133669580Y-71611904D02*
X133717200Y-71659523D01*
X133717200Y-71659523D02*
X133764819Y-71754761D01*
X133764819Y-71754761D02*
X133764819Y-72040475D01*
X133764819Y-72040475D02*
X133717200Y-72135713D01*
X133717200Y-72135713D02*
X133669580Y-72183332D01*
X128669580Y-59896666D02*
X128717200Y-59944285D01*
X128717200Y-59944285D02*
X128764819Y-60087142D01*
X128764819Y-60087142D02*
X128764819Y-60182380D01*
X128764819Y-60182380D02*
X128717200Y-60325237D01*
X128717200Y-60325237D02*
X128621961Y-60420475D01*
X128621961Y-60420475D02*
X128526723Y-60468094D01*
X128526723Y-60468094D02*
X128336247Y-60515713D01*
X128336247Y-60515713D02*
X128193390Y-60515713D01*
X128193390Y-60515713D02*
X128002914Y-60468094D01*
X128002914Y-60468094D02*
X127907676Y-60420475D01*
X127907676Y-60420475D02*
X127812438Y-60325237D01*
X127812438Y-60325237D02*
X127764819Y-60182380D01*
X127764819Y-60182380D02*
X127764819Y-60087142D01*
X127764819Y-60087142D02*
X127812438Y-59944285D01*
X127812438Y-59944285D02*
X127860057Y-59896666D01*
X128098152Y-59039523D02*
X128764819Y-59039523D01*
X127717200Y-59277618D02*
X128431485Y-59515713D01*
X128431485Y-59515713D02*
X128431485Y-58896666D01*
X166689580Y-90296666D02*
X166737200Y-90344285D01*
X166737200Y-90344285D02*
X166784819Y-90487142D01*
X166784819Y-90487142D02*
X166784819Y-90582380D01*
X166784819Y-90582380D02*
X166737200Y-90725237D01*
X166737200Y-90725237D02*
X166641961Y-90820475D01*
X166641961Y-90820475D02*
X166546723Y-90868094D01*
X166546723Y-90868094D02*
X166356247Y-90915713D01*
X166356247Y-90915713D02*
X166213390Y-90915713D01*
X166213390Y-90915713D02*
X166022914Y-90868094D01*
X166022914Y-90868094D02*
X165927676Y-90820475D01*
X165927676Y-90820475D02*
X165832438Y-90725237D01*
X165832438Y-90725237D02*
X165784819Y-90582380D01*
X165784819Y-90582380D02*
X165784819Y-90487142D01*
X165784819Y-90487142D02*
X165832438Y-90344285D01*
X165832438Y-90344285D02*
X165880057Y-90296666D01*
X165784819Y-89391904D02*
X165784819Y-89868094D01*
X165784819Y-89868094D02*
X166261009Y-89915713D01*
X166261009Y-89915713D02*
X166213390Y-89868094D01*
X166213390Y-89868094D02*
X166165771Y-89772856D01*
X166165771Y-89772856D02*
X166165771Y-89534761D01*
X166165771Y-89534761D02*
X166213390Y-89439523D01*
X166213390Y-89439523D02*
X166261009Y-89391904D01*
X166261009Y-89391904D02*
X166356247Y-89344285D01*
X166356247Y-89344285D02*
X166594342Y-89344285D01*
X166594342Y-89344285D02*
X166689580Y-89391904D01*
X166689580Y-89391904D02*
X166737200Y-89439523D01*
X166737200Y-89439523D02*
X166784819Y-89534761D01*
X166784819Y-89534761D02*
X166784819Y-89772856D01*
X166784819Y-89772856D02*
X166737200Y-89868094D01*
X166737200Y-89868094D02*
X166689580Y-89915713D01*
X166689580Y-72516666D02*
X166737200Y-72564285D01*
X166737200Y-72564285D02*
X166784819Y-72707142D01*
X166784819Y-72707142D02*
X166784819Y-72802380D01*
X166784819Y-72802380D02*
X166737200Y-72945237D01*
X166737200Y-72945237D02*
X166641961Y-73040475D01*
X166641961Y-73040475D02*
X166546723Y-73088094D01*
X166546723Y-73088094D02*
X166356247Y-73135713D01*
X166356247Y-73135713D02*
X166213390Y-73135713D01*
X166213390Y-73135713D02*
X166022914Y-73088094D01*
X166022914Y-73088094D02*
X165927676Y-73040475D01*
X165927676Y-73040475D02*
X165832438Y-72945237D01*
X165832438Y-72945237D02*
X165784819Y-72802380D01*
X165784819Y-72802380D02*
X165784819Y-72707142D01*
X165784819Y-72707142D02*
X165832438Y-72564285D01*
X165832438Y-72564285D02*
X165880057Y-72516666D01*
X165784819Y-71659523D02*
X165784819Y-71849999D01*
X165784819Y-71849999D02*
X165832438Y-71945237D01*
X165832438Y-71945237D02*
X165880057Y-71992856D01*
X165880057Y-71992856D02*
X166022914Y-72088094D01*
X166022914Y-72088094D02*
X166213390Y-72135713D01*
X166213390Y-72135713D02*
X166594342Y-72135713D01*
X166594342Y-72135713D02*
X166689580Y-72088094D01*
X166689580Y-72088094D02*
X166737200Y-72040475D01*
X166737200Y-72040475D02*
X166784819Y-71945237D01*
X166784819Y-71945237D02*
X166784819Y-71754761D01*
X166784819Y-71754761D02*
X166737200Y-71659523D01*
X166737200Y-71659523D02*
X166689580Y-71611904D01*
X166689580Y-71611904D02*
X166594342Y-71564285D01*
X166594342Y-71564285D02*
X166356247Y-71564285D01*
X166356247Y-71564285D02*
X166261009Y-71611904D01*
X166261009Y-71611904D02*
X166213390Y-71659523D01*
X166213390Y-71659523D02*
X166165771Y-71754761D01*
X166165771Y-71754761D02*
X166165771Y-71945237D01*
X166165771Y-71945237D02*
X166213390Y-72040475D01*
X166213390Y-72040475D02*
X166261009Y-72088094D01*
X166261009Y-72088094D02*
X166356247Y-72135713D01*
X116234819Y-51538094D02*
X115234819Y-51538094D01*
X115234819Y-51538094D02*
X115234819Y-51157142D01*
X115234819Y-51157142D02*
X115282438Y-51061904D01*
X115282438Y-51061904D02*
X115330057Y-51014285D01*
X115330057Y-51014285D02*
X115425295Y-50966666D01*
X115425295Y-50966666D02*
X115568152Y-50966666D01*
X115568152Y-50966666D02*
X115663390Y-51014285D01*
X115663390Y-51014285D02*
X115711009Y-51061904D01*
X115711009Y-51061904D02*
X115758628Y-51157142D01*
X115758628Y-51157142D02*
X115758628Y-51538094D01*
X115330057Y-50585713D02*
X115282438Y-50538094D01*
X115282438Y-50538094D02*
X115234819Y-50442856D01*
X115234819Y-50442856D02*
X115234819Y-50204761D01*
X115234819Y-50204761D02*
X115282438Y-50109523D01*
X115282438Y-50109523D02*
X115330057Y-50061904D01*
X115330057Y-50061904D02*
X115425295Y-50014285D01*
X115425295Y-50014285D02*
X115520533Y-50014285D01*
X115520533Y-50014285D02*
X115663390Y-50061904D01*
X115663390Y-50061904D02*
X116234819Y-50633332D01*
X116234819Y-50633332D02*
X116234819Y-50014285D01*
X106074819Y-51538094D02*
X105074819Y-51538094D01*
X105074819Y-51538094D02*
X105074819Y-51157142D01*
X105074819Y-51157142D02*
X105122438Y-51061904D01*
X105122438Y-51061904D02*
X105170057Y-51014285D01*
X105170057Y-51014285D02*
X105265295Y-50966666D01*
X105265295Y-50966666D02*
X105408152Y-50966666D01*
X105408152Y-50966666D02*
X105503390Y-51014285D01*
X105503390Y-51014285D02*
X105551009Y-51061904D01*
X105551009Y-51061904D02*
X105598628Y-51157142D01*
X105598628Y-51157142D02*
X105598628Y-51538094D01*
X105074819Y-50633332D02*
X105074819Y-50014285D01*
X105074819Y-50014285D02*
X105455771Y-50347618D01*
X105455771Y-50347618D02*
X105455771Y-50204761D01*
X105455771Y-50204761D02*
X105503390Y-50109523D01*
X105503390Y-50109523D02*
X105551009Y-50061904D01*
X105551009Y-50061904D02*
X105646247Y-50014285D01*
X105646247Y-50014285D02*
X105884342Y-50014285D01*
X105884342Y-50014285D02*
X105979580Y-50061904D01*
X105979580Y-50061904D02*
X106027200Y-50109523D01*
X106027200Y-50109523D02*
X106074819Y-50204761D01*
X106074819Y-50204761D02*
X106074819Y-50490475D01*
X106074819Y-50490475D02*
X106027200Y-50585713D01*
X106027200Y-50585713D02*
X105979580Y-50633332D01*
X161980057Y-107275238D02*
X161932438Y-107370476D01*
X161932438Y-107370476D02*
X161837200Y-107465714D01*
X161837200Y-107465714D02*
X161694342Y-107608571D01*
X161694342Y-107608571D02*
X161646723Y-107703809D01*
X161646723Y-107703809D02*
X161646723Y-107799047D01*
X161884819Y-107751428D02*
X161837200Y-107846666D01*
X161837200Y-107846666D02*
X161741961Y-107941904D01*
X161741961Y-107941904D02*
X161551485Y-107989523D01*
X161551485Y-107989523D02*
X161218152Y-107989523D01*
X161218152Y-107989523D02*
X161027676Y-107941904D01*
X161027676Y-107941904D02*
X160932438Y-107846666D01*
X160932438Y-107846666D02*
X160884819Y-107751428D01*
X160884819Y-107751428D02*
X160884819Y-107560952D01*
X160884819Y-107560952D02*
X160932438Y-107465714D01*
X160932438Y-107465714D02*
X161027676Y-107370476D01*
X161027676Y-107370476D02*
X161218152Y-107322857D01*
X161218152Y-107322857D02*
X161551485Y-107322857D01*
X161551485Y-107322857D02*
X161741961Y-107370476D01*
X161741961Y-107370476D02*
X161837200Y-107465714D01*
X161837200Y-107465714D02*
X161884819Y-107560952D01*
X161884819Y-107560952D02*
X161884819Y-107751428D01*
X160932438Y-106370476D02*
X160884819Y-106465714D01*
X160884819Y-106465714D02*
X160884819Y-106608571D01*
X160884819Y-106608571D02*
X160932438Y-106751428D01*
X160932438Y-106751428D02*
X161027676Y-106846666D01*
X161027676Y-106846666D02*
X161122914Y-106894285D01*
X161122914Y-106894285D02*
X161313390Y-106941904D01*
X161313390Y-106941904D02*
X161456247Y-106941904D01*
X161456247Y-106941904D02*
X161646723Y-106894285D01*
X161646723Y-106894285D02*
X161741961Y-106846666D01*
X161741961Y-106846666D02*
X161837200Y-106751428D01*
X161837200Y-106751428D02*
X161884819Y-106608571D01*
X161884819Y-106608571D02*
X161884819Y-106513333D01*
X161884819Y-106513333D02*
X161837200Y-106370476D01*
X161837200Y-106370476D02*
X161789580Y-106322857D01*
X161789580Y-106322857D02*
X161456247Y-106322857D01*
X161456247Y-106322857D02*
X161456247Y-106513333D01*
X161884819Y-105370476D02*
X161884819Y-105941904D01*
X161884819Y-105656190D02*
X160884819Y-105656190D01*
X160884819Y-105656190D02*
X161027676Y-105751428D01*
X161027676Y-105751428D02*
X161122914Y-105846666D01*
X161122914Y-105846666D02*
X161170533Y-105941904D01*
X161226666Y-33784819D02*
X160893333Y-33308628D01*
X160655238Y-33784819D02*
X160655238Y-32784819D01*
X160655238Y-32784819D02*
X161036190Y-32784819D01*
X161036190Y-32784819D02*
X161131428Y-32832438D01*
X161131428Y-32832438D02*
X161179047Y-32880057D01*
X161179047Y-32880057D02*
X161226666Y-32975295D01*
X161226666Y-32975295D02*
X161226666Y-33118152D01*
X161226666Y-33118152D02*
X161179047Y-33213390D01*
X161179047Y-33213390D02*
X161131428Y-33261009D01*
X161131428Y-33261009D02*
X161036190Y-33308628D01*
X161036190Y-33308628D02*
X160655238Y-33308628D01*
X161655238Y-33261009D02*
X161988571Y-33261009D01*
X162131428Y-33784819D02*
X161655238Y-33784819D01*
X161655238Y-33784819D02*
X161655238Y-32784819D01*
X161655238Y-32784819D02*
X162131428Y-32784819D01*
X162893333Y-33261009D02*
X162560000Y-33261009D01*
X162560000Y-33784819D02*
X162560000Y-32784819D01*
X162560000Y-32784819D02*
X163036190Y-32784819D01*
X163560000Y-32784819D02*
X163560000Y-33022914D01*
X163321905Y-32927676D02*
X163560000Y-33022914D01*
X163560000Y-33022914D02*
X163798095Y-32927676D01*
X163417143Y-33213390D02*
X163560000Y-33022914D01*
X163560000Y-33022914D02*
X163702857Y-33213390D01*
X164321905Y-32784819D02*
X164321905Y-33022914D01*
X164083810Y-32927676D02*
X164321905Y-33022914D01*
X164321905Y-33022914D02*
X164560000Y-32927676D01*
X164179048Y-33213390D02*
X164321905Y-33022914D01*
X164321905Y-33022914D02*
X164464762Y-33213390D01*
X116294819Y-39533094D02*
X115294819Y-39533094D01*
X115294819Y-39533094D02*
X115294819Y-39152142D01*
X115294819Y-39152142D02*
X115342438Y-39056904D01*
X115342438Y-39056904D02*
X115390057Y-39009285D01*
X115390057Y-39009285D02*
X115485295Y-38961666D01*
X115485295Y-38961666D02*
X115628152Y-38961666D01*
X115628152Y-38961666D02*
X115723390Y-39009285D01*
X115723390Y-39009285D02*
X115771009Y-39056904D01*
X115771009Y-39056904D02*
X115818628Y-39152142D01*
X115818628Y-39152142D02*
X115818628Y-39533094D01*
X116294819Y-38009285D02*
X116294819Y-38580713D01*
X116294819Y-38294999D02*
X115294819Y-38294999D01*
X115294819Y-38294999D02*
X115437676Y-38390237D01*
X115437676Y-38390237D02*
X115532914Y-38485475D01*
X115532914Y-38485475D02*
X115580533Y-38580713D01*
X106616666Y-33784819D02*
X106283333Y-33308628D01*
X106045238Y-33784819D02*
X106045238Y-32784819D01*
X106045238Y-32784819D02*
X106426190Y-32784819D01*
X106426190Y-32784819D02*
X106521428Y-32832438D01*
X106521428Y-32832438D02*
X106569047Y-32880057D01*
X106569047Y-32880057D02*
X106616666Y-32975295D01*
X106616666Y-32975295D02*
X106616666Y-33118152D01*
X106616666Y-33118152D02*
X106569047Y-33213390D01*
X106569047Y-33213390D02*
X106521428Y-33261009D01*
X106521428Y-33261009D02*
X106426190Y-33308628D01*
X106426190Y-33308628D02*
X106045238Y-33308628D01*
X107045238Y-33261009D02*
X107378571Y-33261009D01*
X107521428Y-33784819D02*
X107045238Y-33784819D01*
X107045238Y-33784819D02*
X107045238Y-32784819D01*
X107045238Y-32784819D02*
X107521428Y-32784819D01*
X108283333Y-33261009D02*
X107950000Y-33261009D01*
X107950000Y-33784819D02*
X107950000Y-32784819D01*
X107950000Y-32784819D02*
X108426190Y-32784819D01*
X108950000Y-32784819D02*
X108950000Y-33022914D01*
X108711905Y-32927676D02*
X108950000Y-33022914D01*
X108950000Y-33022914D02*
X109188095Y-32927676D01*
X108807143Y-33213390D02*
X108950000Y-33022914D01*
X108950000Y-33022914D02*
X109092857Y-33213390D01*
X109711905Y-32784819D02*
X109711905Y-33022914D01*
X109473810Y-32927676D02*
X109711905Y-33022914D01*
X109711905Y-33022914D02*
X109950000Y-32927676D01*
X109569048Y-33213390D02*
X109711905Y-33022914D01*
X109711905Y-33022914D02*
X109854762Y-33213390D01*
X106616666Y-109984819D02*
X106283333Y-109508628D01*
X106045238Y-109984819D02*
X106045238Y-108984819D01*
X106045238Y-108984819D02*
X106426190Y-108984819D01*
X106426190Y-108984819D02*
X106521428Y-109032438D01*
X106521428Y-109032438D02*
X106569047Y-109080057D01*
X106569047Y-109080057D02*
X106616666Y-109175295D01*
X106616666Y-109175295D02*
X106616666Y-109318152D01*
X106616666Y-109318152D02*
X106569047Y-109413390D01*
X106569047Y-109413390D02*
X106521428Y-109461009D01*
X106521428Y-109461009D02*
X106426190Y-109508628D01*
X106426190Y-109508628D02*
X106045238Y-109508628D01*
X107045238Y-109461009D02*
X107378571Y-109461009D01*
X107521428Y-109984819D02*
X107045238Y-109984819D01*
X107045238Y-109984819D02*
X107045238Y-108984819D01*
X107045238Y-108984819D02*
X107521428Y-108984819D01*
X108283333Y-109461009D02*
X107950000Y-109461009D01*
X107950000Y-109984819D02*
X107950000Y-108984819D01*
X107950000Y-108984819D02*
X108426190Y-108984819D01*
X108950000Y-108984819D02*
X108950000Y-109222914D01*
X108711905Y-109127676D02*
X108950000Y-109222914D01*
X108950000Y-109222914D02*
X109188095Y-109127676D01*
X108807143Y-109413390D02*
X108950000Y-109222914D01*
X108950000Y-109222914D02*
X109092857Y-109413390D01*
X109711905Y-108984819D02*
X109711905Y-109222914D01*
X109473810Y-109127676D02*
X109711905Y-109222914D01*
X109711905Y-109222914D02*
X109950000Y-109127676D01*
X109569048Y-109413390D02*
X109711905Y-109222914D01*
X109711905Y-109222914D02*
X109854762Y-109413390D01*
X161226666Y-109984819D02*
X160893333Y-109508628D01*
X160655238Y-109984819D02*
X160655238Y-108984819D01*
X160655238Y-108984819D02*
X161036190Y-108984819D01*
X161036190Y-108984819D02*
X161131428Y-109032438D01*
X161131428Y-109032438D02*
X161179047Y-109080057D01*
X161179047Y-109080057D02*
X161226666Y-109175295D01*
X161226666Y-109175295D02*
X161226666Y-109318152D01*
X161226666Y-109318152D02*
X161179047Y-109413390D01*
X161179047Y-109413390D02*
X161131428Y-109461009D01*
X161131428Y-109461009D02*
X161036190Y-109508628D01*
X161036190Y-109508628D02*
X160655238Y-109508628D01*
X161655238Y-109461009D02*
X161988571Y-109461009D01*
X162131428Y-109984819D02*
X161655238Y-109984819D01*
X161655238Y-109984819D02*
X161655238Y-108984819D01*
X161655238Y-108984819D02*
X162131428Y-108984819D01*
X162893333Y-109461009D02*
X162560000Y-109461009D01*
X162560000Y-109984819D02*
X162560000Y-108984819D01*
X162560000Y-108984819D02*
X163036190Y-108984819D01*
X163560000Y-108984819D02*
X163560000Y-109222914D01*
X163321905Y-109127676D02*
X163560000Y-109222914D01*
X163560000Y-109222914D02*
X163798095Y-109127676D01*
X163417143Y-109413390D02*
X163560000Y-109222914D01*
X163560000Y-109222914D02*
X163702857Y-109413390D01*
X164321905Y-108984819D02*
X164321905Y-109222914D01*
X164083810Y-109127676D02*
X164321905Y-109222914D01*
X164321905Y-109222914D02*
X164560000Y-109127676D01*
X164179048Y-109413390D02*
X164321905Y-109222914D01*
X164321905Y-109222914D02*
X164464762Y-109413390D01*
D11*
%TO.C,C1*%
X114150000Y-48360000D02*
X114150000Y-45620000D01*
X114150000Y-48360000D02*
X106910000Y-48360000D01*
X114150000Y-45620000D02*
X106910000Y-45620000D01*
X106910000Y-48360000D02*
X106910000Y-45620000D01*
%TO.C,IC1*%
X134680000Y-107840000D02*
X114240000Y-107840000D01*
X114240000Y-107840000D02*
X114240000Y-113140000D01*
X134680000Y-109490000D02*
X134680000Y-107840000D01*
X134680000Y-113140000D02*
X134680000Y-111490000D01*
X114240000Y-113140000D02*
X134680000Y-113140000D01*
X134680000Y-109490000D02*
G75*
G03*
X134680000Y-111490000I0J-1000000D01*
G01*
%TO.C,IC2*%
X106620000Y-75040000D02*
X127060000Y-75040000D01*
X127060000Y-75040000D02*
X127060000Y-69740000D01*
X106620000Y-73390000D02*
X106620000Y-75040000D01*
X106620000Y-69740000D02*
X106620000Y-71390000D01*
X127060000Y-69740000D02*
X106620000Y-69740000D01*
X106620000Y-73390000D02*
G75*
G03*
X106620000Y-71390000I0J1000000D01*
G01*
%TO.C,IC3*%
X127060000Y-57040000D02*
X106620000Y-57040000D01*
X106620000Y-57040000D02*
X106620000Y-62340000D01*
X127060000Y-58690000D02*
X127060000Y-57040000D01*
X127060000Y-62340000D02*
X127060000Y-60690000D01*
X106620000Y-62340000D02*
X127060000Y-62340000D01*
X127060000Y-58690000D02*
G75*
G03*
X127060000Y-60690000I0J-1000000D01*
G01*
%TO.C,IC4*%
X134560000Y-75040000D02*
X160080000Y-75040000D01*
X160080000Y-75040000D02*
X160080000Y-69740000D01*
X134560000Y-73390000D02*
X134560000Y-75040000D01*
X134560000Y-69740000D02*
X134560000Y-71390000D01*
X160080000Y-69740000D02*
X134560000Y-69740000D01*
X134560000Y-73390000D02*
G75*
G03*
X134560000Y-71390000I0J1000000D01*
G01*
%TO.C,R1*%
X137160000Y-54380000D02*
X137160000Y-55150000D01*
X138530000Y-55150000D02*
X135790000Y-55150000D01*
X135790000Y-55150000D02*
X135790000Y-61690000D01*
X138530000Y-61690000D02*
X138530000Y-55150000D01*
X135790000Y-61690000D02*
X138530000Y-61690000D01*
X137160000Y-62460000D02*
X137160000Y-61690000D01*
%TO.C,R2*%
X144780000Y-54380000D02*
X144780000Y-55150000D01*
X146150000Y-55150000D02*
X143410000Y-55150000D01*
X143410000Y-55150000D02*
X143410000Y-61690000D01*
X146150000Y-61690000D02*
X146150000Y-55150000D01*
X143410000Y-61690000D02*
X146150000Y-61690000D01*
X144780000Y-62460000D02*
X144780000Y-61690000D01*
%TO.C,R3*%
X152400000Y-54380000D02*
X152400000Y-55150000D01*
X153770000Y-55150000D02*
X151030000Y-55150000D01*
X151030000Y-55150000D02*
X151030000Y-61690000D01*
X153770000Y-61690000D02*
X153770000Y-55150000D01*
X151030000Y-61690000D02*
X153770000Y-61690000D01*
X152400000Y-62460000D02*
X152400000Y-61690000D01*
%TO.C,R4*%
X140970000Y-54380000D02*
X140970000Y-55150000D01*
X142340000Y-55150000D02*
X139600000Y-55150000D01*
X139600000Y-55150000D02*
X139600000Y-61690000D01*
X142340000Y-61690000D02*
X142340000Y-55150000D01*
X139600000Y-61690000D02*
X142340000Y-61690000D01*
X140970000Y-62460000D02*
X140970000Y-61690000D01*
%TO.C,R5*%
X148590000Y-54380000D02*
X148590000Y-55150000D01*
X149960000Y-55150000D02*
X147220000Y-55150000D01*
X147220000Y-55150000D02*
X147220000Y-61690000D01*
X149960000Y-61690000D02*
X149960000Y-55150000D01*
X147220000Y-61690000D02*
X149960000Y-61690000D01*
X148590000Y-62460000D02*
X148590000Y-61690000D01*
%TO.C,R6*%
X156210000Y-54380000D02*
X156210000Y-55150000D01*
X157580000Y-55150000D02*
X154840000Y-55150000D01*
X154840000Y-55150000D02*
X154840000Y-61690000D01*
X157580000Y-61690000D02*
X157580000Y-55150000D01*
X154840000Y-61690000D02*
X157580000Y-61690000D01*
X156210000Y-62460000D02*
X156210000Y-61690000D01*
%TO.C,U1*%
X114240000Y-97900000D02*
X155000000Y-97900000D01*
X155000000Y-97900000D02*
X155000000Y-84980000D01*
X114240000Y-92440000D02*
X114240000Y-97900000D01*
X114240000Y-84980000D02*
X114240000Y-90440000D01*
X155000000Y-84980000D02*
X114240000Y-84980000D01*
X114240000Y-92440000D02*
G75*
G03*
X114240000Y-90440000I0J1000000D01*
G01*
D12*
%TO.C,X1*%
X128092200Y-33020000D02*
X128092200Y-49149000D01*
X128346200Y-27940000D02*
X128346200Y-33020000D01*
X128346200Y-27940000D02*
X129616200Y-27940000D01*
X128346200Y-33020000D02*
X128092200Y-33020000D01*
X129616200Y-27940000D02*
X129616200Y-33020000D01*
X129616200Y-27940000D02*
X132156200Y-27940000D01*
X129616200Y-33020000D02*
X128346200Y-33020000D01*
X132156200Y-27940000D02*
X132156200Y-33020000D01*
X132156200Y-27940000D02*
X133426200Y-27940000D01*
X132156200Y-33020000D02*
X129616200Y-33020000D01*
X133426200Y-27940000D02*
X133426200Y-33020000D01*
X133426200Y-33020000D02*
X132156200Y-33020000D01*
X134620000Y-35560000D02*
X128092200Y-35560000D01*
X134620000Y-35560000D02*
X134620000Y-49149000D01*
X135382000Y-26926540D02*
X135382000Y-33020000D01*
X135382000Y-33020000D02*
X133426200Y-33020000D01*
X151638000Y-26926540D02*
X135382000Y-26926540D01*
X151638000Y-26926540D02*
X151638000Y-33020000D01*
X151638000Y-33020000D02*
X135382000Y-33020000D01*
X152400000Y-35560000D02*
X134620000Y-35560000D01*
X152400000Y-35560000D02*
X152400000Y-49149000D01*
X153593800Y-27940000D02*
X153593800Y-33020000D01*
X153593800Y-33020000D02*
X151638000Y-33020000D01*
X154863800Y-27940000D02*
X153593800Y-27940000D01*
X154863800Y-27940000D02*
X154863800Y-33020000D01*
X154863800Y-33020000D02*
X153593800Y-33020000D01*
X157403800Y-27940000D02*
X154863800Y-27940000D01*
X157403800Y-27940000D02*
X157403800Y-33020000D01*
X157403800Y-33020000D02*
X154863800Y-33020000D01*
X158673800Y-27940000D02*
X157403800Y-27940000D01*
X158673800Y-27940000D02*
X158673800Y-33020000D01*
X158673800Y-33020000D02*
X157403800Y-33020000D01*
X158927800Y-33020000D02*
X158673800Y-33020000D01*
X158927800Y-33020000D02*
X158927800Y-49149000D01*
X158927800Y-35560000D02*
X152400000Y-35560000D01*
X158927800Y-49149000D02*
X128092200Y-49149000D01*
D11*
%TO.C,C2*%
X104290000Y-105310000D02*
X104290000Y-108050000D01*
X104290000Y-105310000D02*
X111530000Y-105310000D01*
X104290000Y-108050000D02*
X111530000Y-108050000D01*
X111530000Y-105310000D02*
X111530000Y-108050000D01*
%TO.C,C3*%
X132180000Y-68730000D02*
X129440000Y-68730000D01*
X132180000Y-68730000D02*
X132180000Y-75970000D01*
X129440000Y-68730000D02*
X129440000Y-75970000D01*
X132180000Y-75970000D02*
X129440000Y-75970000D01*
%TO.C,C4*%
X129440000Y-63350000D02*
X132180000Y-63350000D01*
X129440000Y-63350000D02*
X129440000Y-56110000D01*
X132180000Y-63350000D02*
X132180000Y-56110000D01*
X129440000Y-56110000D02*
X132180000Y-56110000D01*
%TO.C,C5*%
X165200000Y-86510000D02*
X162460000Y-86510000D01*
X165200000Y-86510000D02*
X165200000Y-93750000D01*
X162460000Y-86510000D02*
X162460000Y-93750000D01*
X165200000Y-93750000D02*
X162460000Y-93750000D01*
%TO.C,C6*%
X165200000Y-68730000D02*
X162460000Y-68730000D01*
X165200000Y-68730000D02*
X165200000Y-75970000D01*
X162460000Y-68730000D02*
X162460000Y-75970000D01*
X165200000Y-75970000D02*
X162460000Y-75970000D01*
%TO.C,P2*%
X116780000Y-52130000D02*
X116780000Y-50800000D01*
X118110000Y-52130000D02*
X116780000Y-52130000D01*
X119380000Y-52130000D02*
X124520000Y-52130000D01*
X119380000Y-52130000D02*
X119380000Y-49470000D01*
X124520000Y-52130000D02*
X124520000Y-49470000D01*
X119380000Y-49470000D02*
X124520000Y-49470000D01*
%TO.C,P3*%
X106620000Y-52130000D02*
X106620000Y-50800000D01*
X107950000Y-52130000D02*
X106620000Y-52130000D01*
X109220000Y-52130000D02*
X114360000Y-52130000D01*
X109220000Y-52130000D02*
X109220000Y-49470000D01*
X114360000Y-52130000D02*
X114360000Y-49470000D01*
X109220000Y-49470000D02*
X114360000Y-49470000D01*
D10*
%TO.C,QG1*%
X158505000Y-106815000D02*
X157235000Y-106815000D01*
X158505000Y-106815000D02*
X158505000Y-114165000D01*
X157235000Y-106815000D02*
X157235000Y-105880000D01*
X138675000Y-106815000D02*
X139945000Y-106815000D01*
X138675000Y-106815000D02*
X138675000Y-114165000D01*
X158505000Y-114165000D02*
X157235000Y-114165000D01*
X138675000Y-114165000D02*
X139945000Y-114165000D01*
D11*
%TO.C,P1*%
X116840000Y-44450000D02*
X116840000Y-43180000D01*
X118110000Y-44450000D02*
X116840000Y-44450000D01*
X120270000Y-42137071D02*
X120270000Y-41740000D01*
X121030000Y-42137071D02*
X121030000Y-41740000D01*
X122810000Y-42137071D02*
X122810000Y-41740000D01*
X123570000Y-42137071D02*
X123570000Y-41740000D01*
X117730000Y-42070000D02*
X117730000Y-41740000D01*
X118490000Y-42070000D02*
X118490000Y-41740000D01*
X116780000Y-41740000D02*
X124520000Y-41740000D01*
X119380000Y-41740000D02*
X119380000Y-39080000D01*
X121920000Y-41740000D02*
X121920000Y-39080000D01*
X124520000Y-41740000D02*
X124520000Y-39080000D01*
X116780000Y-39080000D02*
X116780000Y-41740000D01*
X117730000Y-39080000D02*
X117730000Y-33080000D01*
X117790000Y-39080000D02*
X117790000Y-33080000D01*
X117910000Y-39080000D02*
X117910000Y-33080000D01*
X118030000Y-39080000D02*
X118030000Y-33080000D01*
X118150000Y-39080000D02*
X118150000Y-33080000D01*
X118270000Y-39080000D02*
X118270000Y-33080000D01*
X118390000Y-39080000D02*
X118390000Y-33080000D01*
X120270000Y-39080000D02*
X120270000Y-33080000D01*
X122810000Y-39080000D02*
X122810000Y-33080000D01*
X124520000Y-39080000D02*
X116780000Y-39080000D01*
X117730000Y-33080000D02*
X118490000Y-33080000D01*
X118490000Y-33080000D02*
X118490000Y-39080000D01*
X120270000Y-33080000D02*
X121030000Y-33080000D01*
X121030000Y-33080000D02*
X121030000Y-39080000D01*
X122810000Y-33080000D02*
X123570000Y-33080000D01*
X123570000Y-33080000D02*
X123570000Y-39080000D01*
%TD*%
D13*
%TO.C,X1*%
X139192000Y-46990000D03*
X141478000Y-46990000D03*
X143764000Y-46990000D03*
X146050000Y-46990000D03*
X148336000Y-46990000D03*
X138049000Y-44450000D03*
X140335000Y-44450000D03*
X142621000Y-44450000D03*
X144907000Y-44450000D03*
X147193000Y-44450000D03*
X139192000Y-41910000D03*
X141478000Y-41910000D03*
X143764000Y-41910000D03*
X146050000Y-41910000D03*
X148336000Y-41910000D03*
D14*
X131013200Y-44450000D03*
X156006800Y-44450000D03*
%TD*%
D15*
%TO.C,QG1*%
X156210000Y-106680000D03*
X148590000Y-106680000D03*
X140970000Y-106680000D03*
X140970000Y-114300000D03*
X156210000Y-114300000D03*
X148590000Y-114300000D03*
%TD*%
M02*
