G04 #@! TF.FileFunction,Soldermask,Bot*
%FSLAX46Y46*%
G04 Gerber Fmt 4.6, Leading zero omitted, Abs format (unit mm)*
G04 Created by KiCad (PCBNEW 4.0.1-stable) date Saturday, 19 March 2016 'pmt' 12:13:33*
%MOMM*%
G01*
G04 APERTURE LIST*
%ADD10C,0.100000*%
%ADD11O,2.000000X2.000000*%
%ADD12C,6.399480*%
%ADD13R,1.700000X1.700000*%
%ADD14C,1.700000*%
%ADD15C,2.398980*%
%ADD16R,2.127200X2.432000*%
%ADD17O,2.127200X2.432000*%
%ADD18C,2.076400*%
%ADD19C,5.480000*%
G04 APERTURE END LIST*
D10*
D11*
X148590000Y-114300000D03*
X148590000Y-106680000D03*
X156210000Y-106680000D03*
X140970000Y-106680000D03*
X140970000Y-114300000D03*
X156210000Y-114300000D03*
D12*
X162560000Y-113030000D03*
X107950000Y-113030000D03*
X107950000Y-36830000D03*
D13*
X113030000Y-46990000D03*
D14*
X108030000Y-46990000D03*
D11*
X133350000Y-106680000D03*
X130810000Y-106680000D03*
X128270000Y-106680000D03*
X125730000Y-106680000D03*
X123190000Y-106680000D03*
X120650000Y-106680000D03*
X118110000Y-106680000D03*
X115570000Y-106680000D03*
X115570000Y-114300000D03*
X118110000Y-114300000D03*
X120650000Y-114300000D03*
X123190000Y-114300000D03*
X125730000Y-114300000D03*
X128270000Y-114300000D03*
X130810000Y-114300000D03*
X133350000Y-114300000D03*
X107950000Y-76200000D03*
X110490000Y-76200000D03*
X113030000Y-76200000D03*
X115570000Y-76200000D03*
X118110000Y-76200000D03*
X120650000Y-76200000D03*
X123190000Y-76200000D03*
X125730000Y-76200000D03*
X125730000Y-68580000D03*
X123190000Y-68580000D03*
X120650000Y-68580000D03*
X118110000Y-68580000D03*
X115570000Y-68580000D03*
X113030000Y-68580000D03*
X110490000Y-68580000D03*
X107950000Y-68580000D03*
X125730000Y-55880000D03*
X123190000Y-55880000D03*
X120650000Y-55880000D03*
X118110000Y-55880000D03*
X115570000Y-55880000D03*
X113030000Y-55880000D03*
X110490000Y-55880000D03*
X107950000Y-55880000D03*
X107950000Y-63500000D03*
X110490000Y-63500000D03*
X113030000Y-63500000D03*
X115570000Y-63500000D03*
X118110000Y-63500000D03*
X120650000Y-63500000D03*
X123190000Y-63500000D03*
X125730000Y-63500000D03*
X135890000Y-76200000D03*
X138430000Y-76200000D03*
X140970000Y-76200000D03*
X143510000Y-76200000D03*
X146050000Y-76200000D03*
X148590000Y-76200000D03*
X151130000Y-76200000D03*
X153670000Y-76200000D03*
X156210000Y-76200000D03*
X158750000Y-76200000D03*
X158750000Y-68580000D03*
X156210000Y-68580000D03*
X153670000Y-68580000D03*
X151130000Y-68580000D03*
X148590000Y-68580000D03*
X146050000Y-68580000D03*
X143510000Y-68580000D03*
X140970000Y-68580000D03*
X138430000Y-68580000D03*
X135890000Y-68580000D03*
D15*
X137160000Y-53340000D03*
X137160000Y-63500000D03*
X144780000Y-53340000D03*
X144780000Y-63500000D03*
X152400000Y-53340000D03*
X152400000Y-63500000D03*
X140970000Y-53340000D03*
X140970000Y-63500000D03*
X148590000Y-53340000D03*
X148590000Y-63500000D03*
X156210000Y-53340000D03*
X156210000Y-63500000D03*
D11*
X115570000Y-99060000D03*
X118110000Y-99060000D03*
X120650000Y-99060000D03*
X123190000Y-99060000D03*
X125730000Y-99060000D03*
X128270000Y-99060000D03*
X130810000Y-99060000D03*
X133350000Y-99060000D03*
X135890000Y-99060000D03*
X138430000Y-99060000D03*
X140970000Y-99060000D03*
X143510000Y-99060000D03*
X146050000Y-99060000D03*
X148590000Y-99060000D03*
X151130000Y-99060000D03*
X153670000Y-99060000D03*
X153670000Y-83820000D03*
X151130000Y-83820000D03*
X148590000Y-83820000D03*
X146050000Y-83820000D03*
X143510000Y-83820000D03*
X140970000Y-83820000D03*
X138430000Y-83820000D03*
X135890000Y-83820000D03*
X133350000Y-83820000D03*
X130810000Y-83820000D03*
X128270000Y-83820000D03*
X125730000Y-83820000D03*
X123190000Y-83820000D03*
X120650000Y-83820000D03*
X118110000Y-83820000D03*
X115570000Y-83820000D03*
D13*
X105410000Y-106680000D03*
D14*
X110410000Y-106680000D03*
D13*
X130810000Y-69850000D03*
D14*
X130810000Y-74850000D03*
D13*
X130810000Y-62230000D03*
D14*
X130810000Y-57230000D03*
D13*
X163830000Y-87630000D03*
D14*
X163830000Y-92630000D03*
D13*
X163830000Y-69850000D03*
D14*
X163830000Y-74850000D03*
D16*
X123190000Y-50800000D03*
D17*
X120650000Y-50800000D03*
X118110000Y-50800000D03*
D16*
X113030000Y-50800000D03*
D17*
X110490000Y-50800000D03*
X107950000Y-50800000D03*
D12*
X162560000Y-36830000D03*
D16*
X118110000Y-43180000D03*
D17*
X120650000Y-43180000D03*
X123190000Y-43180000D03*
D18*
X139192000Y-46990000D03*
X141478000Y-46990000D03*
X143764000Y-46990000D03*
X146050000Y-46990000D03*
X148336000Y-46990000D03*
X138049000Y-44450000D03*
X140335000Y-44450000D03*
X142621000Y-44450000D03*
X144907000Y-44450000D03*
X147193000Y-44450000D03*
X139192000Y-41910000D03*
X141478000Y-41910000D03*
X143764000Y-41910000D03*
X146050000Y-41910000D03*
X148336000Y-41910000D03*
D19*
X131013200Y-44450000D03*
X156006800Y-44450000D03*
M02*
