M48
;DRILL file {KiCad 4.0.1-stable} date Friday, 18 March 2016 'pmt' 21:21:18
;FORMAT={-:-/ absolute / inch / decimal}
FMAT,2
INCH,TZ
T1C0.016
T2C0.031
T3C0.039
T4C0.039
T5C0.040
T6C0.120
T7C0.126
%
G90
G05
M72
T1
X4.5Y-2.9
X4.6Y-2.8
X4.95Y-3.75
T2
X4.15Y-4.2
X4.25Y-2.2
X4.25Y-2.5
X4.25Y-2.7
X4.25Y-3.
X4.2531Y-1.85
X4.3469Y-4.2
X4.35Y-2.2
X4.35Y-2.5
X4.35Y-2.7
X4.35Y-3.
X4.45Y-1.85
X4.45Y-2.2
X4.45Y-2.5
X4.45Y-2.7
X4.45Y-3.
X4.55Y-2.2
X4.55Y-2.5
X4.55Y-2.7
X4.55Y-3.
X4.55Y-3.3
X4.55Y-3.9
X4.55Y-4.2
X4.55Y-4.5
X4.65Y-2.2
X4.65Y-2.5
X4.65Y-2.7
X4.65Y-3.
X4.65Y-3.3
X4.65Y-3.9
X4.65Y-4.2
X4.65Y-4.5
X4.75Y-2.2
X4.75Y-2.5
X4.75Y-2.7
X4.75Y-3.
X4.75Y-3.3
X4.75Y-3.9
X4.75Y-4.2
X4.75Y-4.5
X4.85Y-2.2
X4.85Y-2.5
X4.85Y-2.7
X4.85Y-3.
X4.85Y-3.3
X4.85Y-3.9
X4.85Y-4.2
X4.85Y-4.5
X4.95Y-2.2
X4.95Y-2.5
X4.95Y-2.7
X4.95Y-3.
X4.95Y-3.3
X4.95Y-3.9
X4.95Y-4.2
X4.95Y-4.5
X5.05Y-3.3
X5.05Y-3.9
X5.05Y-4.2
X5.05Y-4.5
X5.15Y-2.2531
X5.15Y-2.45
X5.15Y-2.75
X5.15Y-2.9469
X5.15Y-3.3
X5.15Y-3.9
X5.15Y-4.2
X5.15Y-4.5
X5.25Y-3.3
X5.25Y-3.9
X5.25Y-4.2
X5.25Y-4.5
X5.35Y-2.7
X5.35Y-3.
X5.35Y-3.3
X5.35Y-3.9
X5.45Y-2.7
X5.45Y-3.
X5.45Y-3.3
X5.45Y-3.9
X5.55Y-2.7
X5.55Y-3.
X5.55Y-3.3
X5.55Y-3.9
X5.55Y-4.2
X5.55Y-4.5
X5.65Y-2.7
X5.65Y-3.
X5.65Y-3.3
X5.65Y-3.9
X5.75Y-2.7
X5.75Y-3.
X5.75Y-3.3
X5.75Y-3.9
X5.85Y-2.7
X5.85Y-3.
X5.85Y-3.3
X5.85Y-3.9
X5.85Y-4.2
X5.85Y-4.5
X5.95Y-2.7
X5.95Y-3.
X5.95Y-3.3
X5.95Y-3.9
X6.05Y-2.7
X6.05Y-3.
X6.05Y-3.3
X6.05Y-3.9
X6.15Y-2.7
X6.15Y-3.
X6.15Y-4.2
X6.15Y-4.5
X6.25Y-2.7
X6.25Y-3.
X6.45Y-2.75
X6.45Y-2.9469
X6.45Y-3.45
X6.45Y-3.6469
T3
X5.435Y-1.75
X5.48Y-1.65
X5.48Y-1.85
X5.525Y-1.75
X5.57Y-1.65
X5.57Y-1.85
X5.615Y-1.75
X5.66Y-1.65
X5.66Y-1.85
X5.705Y-1.75
X5.75Y-1.65
X5.75Y-1.85
X5.795Y-1.75
X5.84Y-1.65
X5.84Y-1.85
T4
X5.4Y-2.1
X5.4Y-2.5
X5.55Y-2.1
X5.55Y-2.5
X5.7Y-2.1
X5.7Y-2.5
X5.85Y-2.1
X5.85Y-2.5
X6.Y-2.1
X6.Y-2.5
X6.15Y-2.1
X6.15Y-2.5
T5
X4.25Y-2.
X4.35Y-2.
X4.45Y-2.
X4.65Y-1.7
X4.65Y-2.
X4.75Y-1.7
X4.75Y-2.
X4.85Y-1.7
X4.85Y-2.
T6
X5.158Y-1.75
X6.142Y-1.75
T7
X4.25Y-1.45
X4.25Y-4.45
X6.4Y-1.45
X6.4Y-4.45
T0
M30
